M48
METRIC,LZ,000.000
;FILE_FORMAT=3:3
;TYPE=PLATED
;Layer: PTH_Through
;EasyEDA v6.5.5, 2022-07-13 22:11:28
;388c56e55b024576a5eedb72c528fe0a,d87ca97578a24c0188edd79bd05468ec,10
;Gerber Generator version 0.2
;Holesize 1 = 0.701 mm
T01C0.701
;Holesize 2 = 0.762 mm
T02C0.762
;Holesize 3 = 0.800 mm
T03C0.800
;Holesize 4 = 1.101 mm
T04C1.101
%
G05
G90
T01
X028361Y-018161
X030861Y-018161
X023281Y-018161
X025781Y-018161
X038100Y-038354
X040640Y-038354
X043180Y-038354
X045720Y-038354
X048260Y-038354
X050800Y-038354
X053340Y-038354
X055880Y-038354
X058420Y-038354
X060960Y-038354
X063500Y-038354
X066040Y-038354
X068580Y-038354
X071120Y-038354
X073660Y-038354
X073660Y-023114
X071120Y-023114
X068580Y-023114
X066040Y-023114
X063500Y-023114
X060960Y-023114
X058420Y-023114
X055880Y-023114
X053340Y-023114
X050800Y-023114
X048260Y-023114
X045720Y-023114
X043180Y-023114
X040640Y-023114
X038100Y-023114
X009893Y-017566
X003787Y-011459
X020053Y-008168
X013947Y-002061
X032131Y-011176
X032131Y-002540
X046863Y-011049
X046863Y-002413
X059650Y-008242
X065757Y-002136
X070318Y-018021
X076425Y-011915
X008592Y-010440
X010388Y-012236
X012472Y-006560
X014268Y-008356
X037008Y-005461
X037008Y-008001
X042494Y-005461
X042494Y-008001
X067030Y-007576
X065234Y-009372
X070910Y-011456
X069114Y-013252
X021844Y-038608
X024384Y-038608
X026924Y-038608
X019304Y-038608
X016764Y-038608
X014224Y-038608
X011684Y-038608
X009144Y-038608
X009144Y-022606
X011684Y-022606
X014224Y-022606
X019304Y-022606
X024384Y-022606
X026924Y-022606
X056388Y-075565
X058928Y-075565
X061468Y-075565
T02
X016764Y-022606
X021844Y-022606
T03
X049149Y-065024
X046609Y-065024
X044069Y-065024
X041529Y-065024
X038989Y-065024
X036449Y-065024
X033909Y-065024
X031369Y-065024
X028829Y-065024
X051689Y-065024
T04
X015320Y-075565
X017820Y-075565
X020320Y-075565
M30
