G04 Layer: TopSolderMaskLayer*
G04 EasyEDA v6.5.5, 2022-07-13 22:11:28*
G04 388c56e55b024576a5eedb72c528fe0a,d87ca97578a24c0188edd79bd05468ec,10*
G04 Gerber Generator version 0.2*
G04 Scale: 100 percent, Rotated: No, Reflected: No *
G04 Dimensions in millimeters *
G04 leading zeros omitted , absolute positions ,4 integer and 5 decimal *
%FSLAX45Y45*%
%MOMM*%

%ADD23C,2.1016*%
%ADD25C,1.9016*%
%ADD26C,2.2032*%
%ADD28C,2.0832*%

%LPD*%
G36*
X1432052Y-7661655D02*
G01*
X1432001Y-7661579D01*
X1430477Y-7661325D01*
X1428953Y-7660563D01*
X1427937Y-7659547D01*
X1427175Y-7658023D01*
X1426921Y-7656499D01*
X1426971Y-7656576D01*
X1426971Y-7456423D01*
X1426921Y-7456500D01*
X1427175Y-7454976D01*
X1427937Y-7453452D01*
X1428953Y-7452436D01*
X1430477Y-7451674D01*
X1432001Y-7451420D01*
X1432052Y-7451344D01*
X1631950Y-7451344D01*
X1632000Y-7451420D01*
X1633524Y-7451674D01*
X1635048Y-7452436D01*
X1636064Y-7453452D01*
X1636826Y-7454976D01*
X1637080Y-7456500D01*
X1637029Y-7456423D01*
X1637029Y-7656576D01*
X1637080Y-7656499D01*
X1636826Y-7658023D01*
X1636064Y-7659547D01*
X1635048Y-7660563D01*
X1633524Y-7661325D01*
X1632000Y-7661579D01*
X1631950Y-7661655D01*
G37*
D23*
G01*
X1781987Y-7556500D03*
G01*
X2032000Y-7556500D03*
G36*
X2746087Y-1911205D02*
G01*
X2744563Y-1910951D01*
X2743039Y-1910189D01*
X2742023Y-1909173D01*
X2741261Y-1907649D01*
X2741007Y-1906125D01*
X2740913Y-1906015D01*
X2740913Y-1726184D01*
X2741007Y-1726125D01*
X2741261Y-1724601D01*
X2742023Y-1723077D01*
X2743039Y-1722061D01*
X2744563Y-1721299D01*
X2746087Y-1721045D01*
X2745993Y-1721104D01*
X2926079Y-1721104D01*
X2926087Y-1721045D01*
X2927611Y-1721299D01*
X2929135Y-1722061D01*
X2930151Y-1723077D01*
X2930913Y-1724601D01*
X2931167Y-1726125D01*
X2931159Y-1726184D01*
X2931159Y-1906015D01*
X2931167Y-1906125D01*
X2930913Y-1907649D01*
X2930151Y-1909173D01*
X2929135Y-1910189D01*
X2927611Y-1910951D01*
X2926087Y-1911205D01*
X2926079Y-1911095D01*
X2745993Y-1911095D01*
G37*
D25*
G01*
X3086100Y-1816100D03*
G36*
X2238113Y-1911205D02*
G01*
X2236589Y-1910951D01*
X2235065Y-1910189D01*
X2234049Y-1909173D01*
X2233287Y-1907649D01*
X2233033Y-1906125D01*
X2232913Y-1906015D01*
X2232913Y-1726184D01*
X2233033Y-1726125D01*
X2233287Y-1724601D01*
X2234049Y-1723077D01*
X2235065Y-1722061D01*
X2236589Y-1721299D01*
X2238113Y-1721045D01*
X2237993Y-1721104D01*
X2418079Y-1721104D01*
X2418113Y-1721045D01*
X2419637Y-1721299D01*
X2421161Y-1722061D01*
X2422177Y-1723077D01*
X2422939Y-1724601D01*
X2423193Y-1726125D01*
X2423159Y-1726184D01*
X2423159Y-1906015D01*
X2423193Y-1906125D01*
X2422939Y-1907649D01*
X2422177Y-1909173D01*
X2421161Y-1910189D01*
X2419637Y-1910951D01*
X2418113Y-1911205D01*
X2418079Y-1911095D01*
X2237993Y-1911095D01*
G37*
G01*
X2578100Y-1816100D03*
D23*
G01*
X3810000Y-3835400D03*
G01*
X4064000Y-3835400D03*
G01*
X4318000Y-3835400D03*
G01*
X4572000Y-3835400D03*
G01*
X4826000Y-3835400D03*
G01*
X5080000Y-3835400D03*
G01*
X5334000Y-3835400D03*
G01*
X5588000Y-3835400D03*
G01*
X5842000Y-3835400D03*
G01*
X6096000Y-3835400D03*
G01*
X6350000Y-3835400D03*
G01*
X6604000Y-3835400D03*
G01*
X6858000Y-3835400D03*
G01*
X7112000Y-3835400D03*
G01*
X7366000Y-3835400D03*
G01*
X7366000Y-2311400D03*
G01*
X7112000Y-2311400D03*
G01*
X6858000Y-2311400D03*
G01*
X6604000Y-2311400D03*
G01*
X6350000Y-2311400D03*
G01*
X6096000Y-2311400D03*
G01*
X5842000Y-2311400D03*
G01*
X5588000Y-2311400D03*
G01*
X5334000Y-2311400D03*
G01*
X5080000Y-2311400D03*
G01*
X4826000Y-2311400D03*
G01*
X4572000Y-2311400D03*
G01*
X4318000Y-2311400D03*
G01*
X4064000Y-2311400D03*
G01*
X3810000Y-2311400D03*
D26*
G01*
X989329Y-1756587D03*
G01*
X378663Y-1145920D03*
G01*
X2005329Y-816787D03*
G01*
X1394663Y-206120D03*
G01*
X3213100Y-1117600D03*
G01*
X3213100Y-254000D03*
G01*
X4686300Y-1104900D03*
G01*
X4686300Y-241300D03*
G01*
X5965012Y-824229D03*
G01*
X6575679Y-213563D03*
G01*
X7031812Y-1802129D03*
G01*
X7642479Y-1191463D03*
G36*
X858469Y-1176324D02*
G01*
X856945Y-1175816D01*
X855675Y-1174800D01*
X855726Y-1174750D01*
X728471Y-1047495D01*
X728395Y-1047521D01*
X727379Y-1046251D01*
X726871Y-1044727D01*
X726871Y-1043203D01*
X727379Y-1041679D01*
X728395Y-1040409D01*
X728471Y-1040384D01*
X855726Y-913129D01*
X855675Y-913129D01*
X856945Y-912113D01*
X858469Y-911605D01*
X859993Y-911605D01*
X861517Y-912113D01*
X862787Y-913129D01*
X862837Y-913129D01*
X990092Y-1040384D01*
X990066Y-1040409D01*
X991082Y-1041679D01*
X991590Y-1043203D01*
X991590Y-1044727D01*
X991082Y-1046251D01*
X990092Y-1047495D01*
X862787Y-1174800D01*
X861517Y-1175816D01*
X859993Y-1176324D01*
G37*
G36*
X1038072Y-1355928D02*
G01*
X1036548Y-1355420D01*
X1035278Y-1354404D01*
X1035304Y-1354328D01*
X908050Y-1227073D01*
X907999Y-1227124D01*
X906983Y-1225854D01*
X906475Y-1224330D01*
X906475Y-1222806D01*
X906983Y-1221282D01*
X907999Y-1220012D01*
X1035304Y-1092707D01*
X1036548Y-1091717D01*
X1038072Y-1091209D01*
X1039596Y-1091209D01*
X1041120Y-1091717D01*
X1042390Y-1092733D01*
X1042415Y-1092707D01*
X1169670Y-1219962D01*
X1169670Y-1220012D01*
X1170686Y-1221282D01*
X1171194Y-1222806D01*
X1171194Y-1224330D01*
X1170686Y-1225854D01*
X1169670Y-1227073D01*
X1042415Y-1354328D01*
X1042390Y-1354404D01*
X1041120Y-1355420D01*
X1039596Y-1355928D01*
G37*
G36*
X1246403Y-788390D02*
G01*
X1244879Y-787882D01*
X1243609Y-786866D01*
X1243584Y-786892D01*
X1116329Y-659637D01*
X1116329Y-659587D01*
X1115313Y-658317D01*
X1114805Y-656793D01*
X1114805Y-655269D01*
X1115313Y-653745D01*
X1116329Y-652526D01*
X1243584Y-525271D01*
X1243609Y-525195D01*
X1244879Y-524179D01*
X1246403Y-523671D01*
X1247927Y-523671D01*
X1249451Y-524179D01*
X1250721Y-525195D01*
X1250695Y-525271D01*
X1377950Y-652526D01*
X1378000Y-652475D01*
X1379016Y-653745D01*
X1379524Y-655269D01*
X1379524Y-656793D01*
X1379016Y-658317D01*
X1378000Y-659587D01*
X1250695Y-786892D01*
X1250721Y-786866D01*
X1249451Y-787882D01*
X1247927Y-788390D01*
G37*
G36*
X1426006Y-967994D02*
G01*
X1424482Y-967486D01*
X1423212Y-966470D01*
X1423162Y-966470D01*
X1295907Y-839215D01*
X1295933Y-839190D01*
X1294917Y-837920D01*
X1294409Y-836396D01*
X1294409Y-834872D01*
X1294917Y-833348D01*
X1295933Y-832078D01*
X1295907Y-832104D01*
X1423212Y-704799D01*
X1424482Y-703783D01*
X1426006Y-703275D01*
X1427530Y-703275D01*
X1429054Y-703783D01*
X1430324Y-704799D01*
X1430273Y-704850D01*
X1557528Y-832104D01*
X1557604Y-832078D01*
X1558620Y-833348D01*
X1559128Y-834872D01*
X1559128Y-836396D01*
X1558620Y-837920D01*
X1557604Y-839190D01*
X1557528Y-839215D01*
X1430273Y-966470D01*
X1430324Y-966470D01*
X1429054Y-967486D01*
X1427530Y-967994D01*
G37*
G36*
X3610780Y-641179D02*
G01*
X3609256Y-640925D01*
X3607732Y-640163D01*
X3606716Y-639147D01*
X3605954Y-637623D01*
X3605700Y-636099D01*
X3605784Y-636015D01*
X3605784Y-456184D01*
X3605700Y-456100D01*
X3605954Y-454576D01*
X3606716Y-453052D01*
X3607732Y-452036D01*
X3609256Y-451274D01*
X3610780Y-451020D01*
X3610863Y-451104D01*
X3790695Y-451104D01*
X3790779Y-451020D01*
X3792303Y-451274D01*
X3793827Y-452036D01*
X3794843Y-453052D01*
X3795605Y-454576D01*
X3795859Y-456100D01*
X3795775Y-456184D01*
X3795775Y-636015D01*
X3795859Y-636099D01*
X3795605Y-637623D01*
X3794843Y-639147D01*
X3793827Y-640163D01*
X3792303Y-640925D01*
X3790779Y-641179D01*
X3790695Y-641095D01*
X3610863Y-641095D01*
G37*
G36*
X3610780Y-895179D02*
G01*
X3609256Y-894925D01*
X3607732Y-894163D01*
X3606716Y-893147D01*
X3605954Y-891623D01*
X3605700Y-890099D01*
X3605784Y-890015D01*
X3605784Y-710184D01*
X3605700Y-710100D01*
X3605954Y-708576D01*
X3606716Y-707052D01*
X3607732Y-706036D01*
X3609256Y-705274D01*
X3610780Y-705020D01*
X3610863Y-705104D01*
X3790695Y-705104D01*
X3790779Y-705020D01*
X3792303Y-705274D01*
X3793827Y-706036D01*
X3794843Y-707052D01*
X3795605Y-708576D01*
X3795859Y-710100D01*
X3795775Y-710184D01*
X3795775Y-890015D01*
X3795859Y-890099D01*
X3795605Y-891623D01*
X3794843Y-893147D01*
X3793827Y-894163D01*
X3792303Y-894925D01*
X3790779Y-895179D01*
X3790695Y-895095D01*
X3610863Y-895095D01*
G37*
G36*
X4159420Y-641179D02*
G01*
X4157896Y-640925D01*
X4156372Y-640163D01*
X4155356Y-639147D01*
X4154594Y-637623D01*
X4154340Y-636099D01*
X4154424Y-636015D01*
X4154424Y-456184D01*
X4154340Y-456100D01*
X4154594Y-454576D01*
X4155356Y-453052D01*
X4156372Y-452036D01*
X4157896Y-451274D01*
X4159420Y-451020D01*
X4159504Y-451104D01*
X4339336Y-451104D01*
X4339419Y-451020D01*
X4340943Y-451274D01*
X4342467Y-452036D01*
X4343483Y-453052D01*
X4344245Y-454576D01*
X4344499Y-456100D01*
X4344415Y-456184D01*
X4344415Y-636015D01*
X4344499Y-636099D01*
X4344245Y-637623D01*
X4343483Y-639147D01*
X4342467Y-640163D01*
X4340943Y-640925D01*
X4339419Y-641179D01*
X4339336Y-641095D01*
X4159504Y-641095D01*
G37*
G36*
X4159420Y-895179D02*
G01*
X4157896Y-894925D01*
X4156372Y-894163D01*
X4155356Y-893147D01*
X4154594Y-891623D01*
X4154340Y-890099D01*
X4154424Y-890015D01*
X4154424Y-710184D01*
X4154340Y-710100D01*
X4154594Y-708576D01*
X4155356Y-707052D01*
X4156372Y-706036D01*
X4157896Y-705274D01*
X4159420Y-705020D01*
X4159504Y-705104D01*
X4339336Y-705104D01*
X4339419Y-705020D01*
X4340943Y-705274D01*
X4342467Y-706036D01*
X4343483Y-707052D01*
X4344245Y-708576D01*
X4344499Y-710100D01*
X4344415Y-710184D01*
X4344415Y-890015D01*
X4344499Y-890099D01*
X4344245Y-891623D01*
X4343483Y-893147D01*
X4342467Y-894163D01*
X4340943Y-894925D01*
X4339419Y-895179D01*
X4339336Y-895095D01*
X4159504Y-895095D01*
G37*
G36*
X6702272Y-889990D02*
G01*
X6700748Y-889482D01*
X6699478Y-888466D01*
X6572199Y-761187D01*
X6571183Y-759917D01*
X6570675Y-758393D01*
X6570675Y-756869D01*
X6571183Y-755345D01*
X6572199Y-754075D01*
X6572250Y-754126D01*
X6699504Y-626871D01*
X6699478Y-626795D01*
X6700748Y-625779D01*
X6702272Y-625271D01*
X6703796Y-625271D01*
X6705320Y-625779D01*
X6706590Y-626795D01*
X6706615Y-626871D01*
X6833870Y-754126D01*
X6834886Y-755345D01*
X6835393Y-756869D01*
X6835393Y-758393D01*
X6834886Y-759917D01*
X6833870Y-761187D01*
X6833870Y-761237D01*
X6706615Y-888492D01*
X6706590Y-888466D01*
X6705320Y-889482D01*
X6703796Y-889990D01*
G37*
G36*
X6522669Y-1069594D02*
G01*
X6521145Y-1069086D01*
X6519875Y-1068070D01*
X6519925Y-1068070D01*
X6392672Y-940815D01*
X6392595Y-940790D01*
X6391579Y-939520D01*
X6391071Y-937996D01*
X6391071Y-936472D01*
X6391579Y-934948D01*
X6392595Y-933678D01*
X6392672Y-933704D01*
X6519925Y-806450D01*
X6519875Y-806399D01*
X6521145Y-805383D01*
X6522669Y-804875D01*
X6524193Y-804875D01*
X6525717Y-805383D01*
X6526987Y-806399D01*
X6527038Y-806450D01*
X6654291Y-933704D01*
X6654266Y-933678D01*
X6655282Y-934948D01*
X6655790Y-936472D01*
X6655790Y-937996D01*
X6655282Y-939520D01*
X6654266Y-940790D01*
X6654291Y-940815D01*
X6527038Y-1068070D01*
X6526987Y-1068070D01*
X6525717Y-1069086D01*
X6524193Y-1069594D01*
G37*
G36*
X7090206Y-1277924D02*
G01*
X7088682Y-1277416D01*
X7087412Y-1276400D01*
X7087361Y-1276350D01*
X6960108Y-1149095D01*
X6960133Y-1149121D01*
X6959117Y-1147851D01*
X6958609Y-1146327D01*
X6958609Y-1144803D01*
X6959117Y-1143279D01*
X6960133Y-1142009D01*
X6960108Y-1141984D01*
X7087361Y-1014729D01*
X7087412Y-1014729D01*
X7088682Y-1013713D01*
X7090206Y-1013205D01*
X7091730Y-1013205D01*
X7093254Y-1013713D01*
X7094524Y-1014729D01*
X7094474Y-1014729D01*
X7221727Y-1141984D01*
X7221804Y-1142009D01*
X7222820Y-1143279D01*
X7223328Y-1144803D01*
X7223328Y-1146327D01*
X7222820Y-1147851D01*
X7221804Y-1149121D01*
X7221727Y-1149095D01*
X7094474Y-1276350D01*
X7094524Y-1276400D01*
X7093254Y-1277416D01*
X7091730Y-1277924D01*
G37*
G36*
X6923953Y-1444177D02*
G01*
X6922429Y-1443669D01*
X6921159Y-1442653D01*
X6921245Y-1442720D01*
X6793738Y-1315465D01*
X6793880Y-1315374D01*
X6792864Y-1314104D01*
X6792356Y-1312580D01*
X6792356Y-1311056D01*
X6792864Y-1309532D01*
X6793880Y-1308262D01*
X6793738Y-1308100D01*
X6894322Y-1207770D01*
X6894459Y-1207683D01*
X6895729Y-1206667D01*
X6897253Y-1206159D01*
X6898777Y-1206159D01*
X6900301Y-1206667D01*
X6901571Y-1207683D01*
X6901688Y-1207770D01*
X7028941Y-1335023D01*
X7028850Y-1334963D01*
X7029866Y-1336233D01*
X7030374Y-1337757D01*
X7030374Y-1339281D01*
X7029866Y-1340805D01*
X7028850Y-1342075D01*
X7028941Y-1342136D01*
X6928358Y-1442720D01*
X6928271Y-1442653D01*
X6927001Y-1443669D01*
X6925477Y-1444177D01*
G37*
D23*
G01*
X2184400Y-3860800D03*
G01*
X2438400Y-3860800D03*
G01*
X2692400Y-3860800D03*
G01*
X1930400Y-3860800D03*
G01*
X1676400Y-3860800D03*
G01*
X1422400Y-3860800D03*
G01*
X1168400Y-3860800D03*
G01*
X914400Y-3860800D03*
G01*
X914400Y-2260600D03*
G01*
X1168400Y-2260600D03*
G01*
X1422400Y-2260600D03*
G01*
X1676400Y-2260600D03*
G01*
X1930400Y-2260600D03*
G01*
X2184400Y-2260600D03*
G01*
X2438400Y-2260600D03*
G01*
X2692400Y-2260600D03*
D26*
G01*
X4914900Y-6502400D03*
G01*
X4660900Y-6502400D03*
G01*
X4406900Y-6502400D03*
D28*
G01*
X4152900Y-6502400D03*
G01*
X3898900Y-6502400D03*
G01*
X3644900Y-6502400D03*
G01*
X3390900Y-6502400D03*
G01*
X3136900Y-6502400D03*
G01*
X2882900Y-6502400D03*
D26*
G01*
X5168900Y-6502400D03*
G01*
X5638800Y-7556500D03*
G01*
X5892800Y-7556500D03*
G01*
X6146800Y-7556500D03*
M02*
