G04 Layer: TopLayer*
G04 EasyEDA v6.5.5, 2022-07-13 22:11:28*
G04 388c56e55b024576a5eedb72c528fe0a,d87ca97578a24c0188edd79bd05468ec,10*
G04 Gerber Generator version 0.2*
G04 Scale: 100 percent, Rotated: No, Reflected: No *
G04 Dimensions in millimeters *
G04 leading zeros omitted , absolute positions ,4 integer and 5 decimal *
%FSLAX45Y45*%
%MOMM*%

%ADD12C,0.2032*%
%ADD14C,2.0000*%
%ADD16C,1.8000*%
%ADD18C,1.8800*%

%LPD*%
D12*
X812800Y-5573521D02*
G01*
X812800Y-5767323D01*
X984504Y-5638037D02*
G01*
X984504Y-5767323D01*
X984504Y-5665723D02*
G01*
X966215Y-5647436D01*
X947673Y-5638037D01*
X919987Y-5638037D01*
X901445Y-5647436D01*
X882904Y-5665723D01*
X873760Y-5693410D01*
X873760Y-5711952D01*
X882904Y-5739637D01*
X901445Y-5758179D01*
X919987Y-5767323D01*
X947673Y-5767323D01*
X966215Y-5758179D01*
X984504Y-5739637D01*
X1045463Y-5638037D02*
G01*
X1045463Y-5730494D01*
X1054862Y-5758179D01*
X1073150Y-5767323D01*
X1101089Y-5767323D01*
X1119378Y-5758179D01*
X1147063Y-5730494D01*
X1147063Y-5638037D02*
G01*
X1147063Y-5767323D01*
X1319021Y-5665723D02*
G01*
X1300479Y-5647436D01*
X1281937Y-5638037D01*
X1254252Y-5638037D01*
X1235710Y-5647436D01*
X1217421Y-5665723D01*
X1208023Y-5693410D01*
X1208023Y-5711952D01*
X1217421Y-5739637D01*
X1235710Y-5758179D01*
X1254252Y-5767323D01*
X1281937Y-5767323D01*
X1300479Y-5758179D01*
X1319021Y-5739637D01*
X1379981Y-5573521D02*
G01*
X1379981Y-5767323D01*
X1379981Y-5675121D02*
G01*
X1407668Y-5647436D01*
X1426210Y-5638037D01*
X1453895Y-5638037D01*
X1472184Y-5647436D01*
X1481581Y-5675121D01*
X1481581Y-5767323D01*
X1653286Y-5638037D02*
G01*
X1653286Y-5767323D01*
X1653286Y-5665723D02*
G01*
X1634744Y-5647436D01*
X1616455Y-5638037D01*
X1588770Y-5638037D01*
X1570228Y-5647436D01*
X1551686Y-5665723D01*
X1542542Y-5693410D01*
X1542542Y-5711952D01*
X1551686Y-5739637D01*
X1570228Y-5758179D01*
X1588770Y-5767323D01*
X1616455Y-5767323D01*
X1634744Y-5758179D01*
X1653286Y-5739637D01*
X1714245Y-5573521D02*
G01*
X1714245Y-5767323D01*
X1714245Y-5573521D02*
G01*
X1797304Y-5573521D01*
X1824989Y-5582665D01*
X1834387Y-5591810D01*
X1843531Y-5610352D01*
X1843531Y-5628894D01*
X1834387Y-5647436D01*
X1824989Y-5656579D01*
X1797304Y-5665723D01*
X1714245Y-5665723D02*
G01*
X1797304Y-5665723D01*
X1824989Y-5675121D01*
X1834387Y-5684265D01*
X1843531Y-5702807D01*
X1843531Y-5730494D01*
X1834387Y-5749036D01*
X1824989Y-5758179D01*
X1797304Y-5767323D01*
X1714245Y-5767323D01*
X1959863Y-5573521D02*
G01*
X1941575Y-5582665D01*
X1923034Y-5601207D01*
X1913889Y-5619750D01*
X1904492Y-5647436D01*
X1904492Y-5693410D01*
X1913889Y-5721350D01*
X1923034Y-5739637D01*
X1941575Y-5758179D01*
X1959863Y-5767323D01*
X1996947Y-5767323D01*
X2015490Y-5758179D01*
X2033777Y-5739637D01*
X2043175Y-5721350D01*
X2052320Y-5693410D01*
X2052320Y-5647436D01*
X2043175Y-5619750D01*
X2033777Y-5601207D01*
X2015490Y-5582665D01*
X1996947Y-5573521D01*
X1959863Y-5573521D01*
X2178050Y-5573521D02*
G01*
X2178050Y-5767323D01*
X2113279Y-5573521D02*
G01*
X2242565Y-5573521D01*
G36*
X1432001Y-7456500D02*
G01*
X1632000Y-7456500D01*
X1632000Y-7656499D01*
X1432001Y-7656499D01*
G37*
D14*
G01*
X1781987Y-7556500D03*
G01*
X2032000Y-7556500D03*
G36*
X2746087Y-1726125D02*
G01*
X2926087Y-1726125D01*
X2926087Y-1906125D01*
X2746087Y-1906125D01*
G37*
D16*
G01*
X3086100Y-1816100D03*
G36*
X2238113Y-1726125D02*
G01*
X2418113Y-1726125D01*
X2418113Y-1906125D01*
X2238113Y-1906125D01*
G37*
G01*
X2578100Y-1816100D03*
D14*
G01*
X3810000Y-3835400D03*
G01*
X4064000Y-3835400D03*
G01*
X4318000Y-3835400D03*
G01*
X4572000Y-3835400D03*
G01*
X4826000Y-3835400D03*
G01*
X5080000Y-3835400D03*
G01*
X5334000Y-3835400D03*
G01*
X5588000Y-3835400D03*
G01*
X5842000Y-3835400D03*
G01*
X6096000Y-3835400D03*
G01*
X6350000Y-3835400D03*
G01*
X6604000Y-3835400D03*
G01*
X6858000Y-3835400D03*
G01*
X7112000Y-3835400D03*
G01*
X7366000Y-3835400D03*
G01*
X7366000Y-2311400D03*
G01*
X7112000Y-2311400D03*
G01*
X6858000Y-2311400D03*
G01*
X6604000Y-2311400D03*
G01*
X6350000Y-2311400D03*
G01*
X6096000Y-2311400D03*
G01*
X5842000Y-2311400D03*
G01*
X5588000Y-2311400D03*
G01*
X5334000Y-2311400D03*
G01*
X5080000Y-2311400D03*
G01*
X4826000Y-2311400D03*
G01*
X4572000Y-2311400D03*
G01*
X4318000Y-2311400D03*
G01*
X4064000Y-2311400D03*
G01*
X3810000Y-2311400D03*
G01*
X989329Y-1756587D03*
G01*
X378663Y-1145920D03*
G01*
X2005329Y-816787D03*
G01*
X1394663Y-206120D03*
G01*
X3213100Y-1117600D03*
G01*
X3213100Y-254000D03*
G01*
X4686300Y-1104900D03*
G01*
X4686300Y-241300D03*
G01*
X5965012Y-824229D03*
G01*
X6575679Y-213563D03*
G01*
X7031812Y-1802129D03*
G01*
X7642479Y-1191463D03*
G36*
X731951Y-1043965D02*
G01*
X859231Y-916686D01*
X986510Y-1043965D01*
X859231Y-1171244D01*
G37*
G36*
X911555Y-1223568D02*
G01*
X1038834Y-1096289D01*
X1166113Y-1223568D01*
X1038834Y-1350848D01*
G37*
G36*
X1119886Y-656031D02*
G01*
X1247165Y-528751D01*
X1374444Y-656031D01*
X1247165Y-783310D01*
G37*
G36*
X1299489Y-835634D02*
G01*
X1426768Y-708355D01*
X1554048Y-835634D01*
X1426768Y-962913D01*
G37*
G36*
X3610780Y-456100D02*
G01*
X3790779Y-456100D01*
X3790779Y-636099D01*
X3610780Y-636099D01*
G37*
G36*
X3610780Y-710100D02*
G01*
X3790779Y-710100D01*
X3790779Y-890099D01*
X3610780Y-890099D01*
G37*
G36*
X4159420Y-456100D02*
G01*
X4339419Y-456100D01*
X4339419Y-636099D01*
X4159420Y-636099D01*
G37*
G36*
X4159420Y-710100D02*
G01*
X4339419Y-710100D01*
X4339419Y-890099D01*
X4159420Y-890099D01*
G37*
G36*
X6703034Y-630351D02*
G01*
X6830313Y-757631D01*
X6703034Y-884910D01*
X6575755Y-757631D01*
G37*
G36*
X6523431Y-809955D02*
G01*
X6650710Y-937234D01*
X6523431Y-1064513D01*
X6396151Y-937234D01*
G37*
G36*
X7090968Y-1018286D02*
G01*
X7218248Y-1145565D01*
X7090968Y-1272844D01*
X6963689Y-1145565D01*
G37*
G36*
X6898015Y-1211239D02*
G01*
X7025294Y-1338519D01*
X6924715Y-1439097D01*
X6797436Y-1311818D01*
G37*
G01*
X2184400Y-3860800D03*
G01*
X2438400Y-3860800D03*
G01*
X2692400Y-3860800D03*
G01*
X1930400Y-3860800D03*
G01*
X1676400Y-3860800D03*
G01*
X1422400Y-3860800D03*
G01*
X1168400Y-3860800D03*
G01*
X914400Y-3860800D03*
G01*
X914400Y-2260600D03*
G01*
X1168400Y-2260600D03*
G01*
X1422400Y-2260600D03*
G01*
X1676400Y-2260600D03*
G01*
X1930400Y-2260600D03*
G01*
X2184400Y-2260600D03*
G01*
X2438400Y-2260600D03*
G01*
X2692400Y-2260600D03*
G01*
X4914900Y-6502400D03*
G01*
X4660900Y-6502400D03*
G01*
X4406900Y-6502400D03*
D18*
G01*
X4152900Y-6502400D03*
G01*
X3898900Y-6502400D03*
G01*
X3644900Y-6502400D03*
G01*
X3390900Y-6502400D03*
G01*
X3136900Y-6502400D03*
G01*
X2882900Y-6502400D03*
D14*
G01*
X5168900Y-6502400D03*
G01*
X5638800Y-7556500D03*
G01*
X5892800Y-7556500D03*
G01*
X6146800Y-7556500D03*
M02*
