G04 Layer: TopSilkscreenLayer*
G04 EasyEDA v6.5.5, 2022-07-15 14:42:27*
G04 532d801377d849919285b652b89c2504,d87ca97578a24c0188edd79bd05468ec,10*
G04 Gerber Generator version 0.2*
G04 Scale: 100 percent, Rotated: No, Reflected: No *
G04 Dimensions in millimeters *
G04 leading zeros omitted , absolute positions ,4 integer and 5 decimal *
%FSLAX45Y45*%
%MOMM*%

%ADD10C,0.2540*%
%ADD14C,0.1524*%

%LPD*%
D14*
X990597Y-75178D02*
G01*
X990597Y-153156D01*
X995677Y-168650D01*
X1006091Y-179064D01*
X1021839Y-184144D01*
X1032253Y-184144D01*
X1047747Y-179064D01*
X1058161Y-168650D01*
X1063241Y-153156D01*
X1063241Y-75178D01*
X1102865Y-101086D02*
G01*
X1102865Y-96006D01*
X1107945Y-85592D01*
X1113279Y-80258D01*
X1123693Y-75178D01*
X1144267Y-75178D01*
X1154681Y-80258D01*
X1160015Y-85592D01*
X1165095Y-96006D01*
X1165095Y-106420D01*
X1160015Y-116834D01*
X1149601Y-132328D01*
X1097531Y-184144D01*
X1170429Y-184144D01*
X850900Y-608584D02*
G01*
X850900Y-717550D01*
X850900Y-608584D02*
G01*
X897636Y-608584D01*
X913129Y-613663D01*
X918463Y-618997D01*
X923543Y-629412D01*
X923543Y-639826D01*
X918463Y-650239D01*
X913129Y-655320D01*
X897636Y-660400D01*
X850900Y-660400D01*
X887222Y-660400D02*
G01*
X923543Y-717550D01*
X1030731Y-608584D02*
G01*
X978661Y-717550D01*
X957834Y-608584D02*
G01*
X1030731Y-608584D01*
X850900Y-1294384D02*
G01*
X850900Y-1403350D01*
X850900Y-1294384D02*
G01*
X897636Y-1294384D01*
X913129Y-1299463D01*
X918463Y-1304797D01*
X923543Y-1315212D01*
X923543Y-1325626D01*
X918463Y-1336039D01*
X913129Y-1341120D01*
X897636Y-1346200D01*
X850900Y-1346200D01*
X887222Y-1346200D02*
G01*
X923543Y-1403350D01*
X983995Y-1294384D02*
G01*
X968247Y-1299463D01*
X963168Y-1309878D01*
X963168Y-1320292D01*
X968247Y-1330705D01*
X978661Y-1336039D01*
X999490Y-1341120D01*
X1014984Y-1346200D01*
X1025397Y-1356613D01*
X1030731Y-1367028D01*
X1030731Y-1382776D01*
X1025397Y-1393189D01*
X1020318Y-1398270D01*
X1004570Y-1403350D01*
X983995Y-1403350D01*
X968247Y-1398270D01*
X963168Y-1393189D01*
X957834Y-1382776D01*
X957834Y-1367028D01*
X963168Y-1356613D01*
X973581Y-1346200D01*
X989075Y-1341120D01*
X1009904Y-1336039D01*
X1020318Y-1330705D01*
X1025397Y-1320292D01*
X1025397Y-1309878D01*
X1020318Y-1299463D01*
X1004570Y-1294384D01*
X983995Y-1294384D01*
X2134108Y-1119378D02*
G01*
X2144522Y-1114044D01*
X2154936Y-1103629D01*
X2160015Y-1093470D01*
X2160015Y-1072642D01*
X2154936Y-1062228D01*
X2144522Y-1051813D01*
X2134108Y-1046479D01*
X2118359Y-1041400D01*
X2092452Y-1041400D01*
X2076958Y-1046479D01*
X2066543Y-1051813D01*
X2056129Y-1062228D01*
X2051050Y-1072642D01*
X2051050Y-1093470D01*
X2056129Y-1103629D01*
X2066543Y-1114044D01*
X2076958Y-1119378D01*
X2139188Y-1153668D02*
G01*
X2144522Y-1164081D01*
X2160015Y-1179576D01*
X2051050Y-1179576D01*
X990600Y-1370584D02*
G01*
X990600Y-1448562D01*
X995679Y-1464055D01*
X1006093Y-1474470D01*
X1021841Y-1479550D01*
X1032256Y-1479550D01*
X1047750Y-1474470D01*
X1058163Y-1464055D01*
X1063243Y-1448562D01*
X1063243Y-1370584D01*
X1107947Y-1370584D02*
G01*
X1165097Y-1370584D01*
X1134109Y-1412239D01*
X1149604Y-1412239D01*
X1160018Y-1417320D01*
X1165097Y-1422400D01*
X1170431Y-1438147D01*
X1170431Y-1448562D01*
X1165097Y-1464055D01*
X1154684Y-1474470D01*
X1139190Y-1479550D01*
X1123695Y-1479550D01*
X1107947Y-1474470D01*
X1102868Y-1469389D01*
X1097534Y-1458976D01*
G36*
X1338326Y-1316380D02*
G01*
X1352296Y-1329131D01*
X1366774Y-1341272D01*
X1381810Y-1352753D01*
X1397355Y-1363573D01*
X1413306Y-1373682D01*
X1429715Y-1383131D01*
X1446530Y-1391818D01*
X1463649Y-1399794D01*
X1481124Y-1407007D01*
X1498904Y-1413459D01*
X1516989Y-1419148D01*
X1535226Y-1424025D01*
X1553718Y-1428089D01*
X1572361Y-1431391D01*
X1591106Y-1433830D01*
X1609953Y-1435455D01*
X1628851Y-1436319D01*
X1647748Y-1436319D01*
X1666646Y-1435455D01*
X1685493Y-1433830D01*
X1704238Y-1431391D01*
X1722882Y-1428089D01*
X1741373Y-1424025D01*
X1759610Y-1419148D01*
X1777695Y-1413459D01*
X1795475Y-1407007D01*
X1812950Y-1399794D01*
X1830070Y-1391818D01*
X1846884Y-1383131D01*
X1863293Y-1373682D01*
X1879244Y-1363573D01*
X1894789Y-1352753D01*
X1909825Y-1341272D01*
X1924304Y-1329131D01*
X1938274Y-1316380D01*
G37*
D10*
X235996Y-238295D02*
G01*
X1795998Y-238295D01*
X1795998Y-498294D01*
X235996Y-498294D01*
X235996Y-238295D01*
X1206500Y-762000D02*
G01*
X1206500Y-965200D01*
X1206500Y-965200D02*
G01*
X596900Y-965200D01*
X596900Y-762000D02*
G01*
X1206500Y-762000D01*
X596900Y-965200D02*
G01*
X596900Y-762000D01*
X596900Y-1257300D02*
G01*
X596900Y-1054100D01*
X596900Y-1054100D02*
G01*
X1206500Y-1054100D01*
X1206500Y-1257300D02*
G01*
X596900Y-1257300D01*
X1206500Y-1054100D02*
G01*
X1206500Y-1257300D01*
X1758299Y-821400D02*
G01*
X1758299Y-696940D01*
X1690989Y-759170D02*
G01*
X1825609Y-759170D01*
X235996Y-1533695D02*
G01*
X1795998Y-1533695D01*
X1795998Y-1793694D01*
X235996Y-1793694D01*
X235996Y-1533695D01*
G75*
G01*
X2038350Y-1041654D02*
G03*
X2038350Y-1048766I-399984J-3556D01*
M02*
