G04 Layer: TopSilkscreenLayer*
G04 EasyEDA v6.5.5, 2022-07-15 14:42:27*
G04 2642ab15f52d4cf38600742e9c2e641c,d87ca97578a24c0188edd79bd05468ec,10*
G04 Gerber Generator version 0.2*
G04 Scale: 100 percent, Rotated: No, Reflected: No *
G04 Dimensions in millimeters *
G04 leading zeros omitted , absolute positions ,4 integer and 5 decimal *
%FSLAX45Y45*%
%MOMM*%

%ADD10C,0.2540*%
%ADD15C,0.1524*%

%LPD*%
D15*
X-50802Y674121D02*
G01*
X-50802Y596143D01*
X-45722Y580649D01*
X-35308Y570235D01*
X-19560Y565155D01*
X-9146Y565155D01*
X6347Y570235D01*
X16761Y580649D01*
X21841Y596143D01*
X21841Y674121D01*
X61465Y648213D02*
G01*
X61465Y653293D01*
X66545Y663707D01*
X71879Y669041D01*
X82293Y674121D01*
X102867Y674121D01*
X113281Y669041D01*
X118615Y663707D01*
X123695Y653293D01*
X123695Y642879D01*
X118615Y632465D01*
X108201Y616971D01*
X56131Y565155D01*
X129029Y565155D01*
X-177800Y343915D02*
G01*
X-177800Y234950D01*
X-177800Y343915D02*
G01*
X-131063Y343915D01*
X-115570Y338836D01*
X-110236Y333502D01*
X-105156Y323087D01*
X-105156Y312673D01*
X-110236Y302260D01*
X-115570Y297179D01*
X-131063Y292100D01*
X-177800Y292100D01*
X-141477Y292100D02*
G01*
X-105156Y234950D01*
X2031Y343915D02*
G01*
X-50038Y234950D01*
X-70865Y343915D02*
G01*
X2031Y343915D01*
X-177800Y-265684D02*
G01*
X-177800Y-374650D01*
X-177800Y-265684D02*
G01*
X-131063Y-265684D01*
X-115570Y-270763D01*
X-110236Y-276097D01*
X-105156Y-286512D01*
X-105156Y-296926D01*
X-110236Y-307339D01*
X-115570Y-312420D01*
X-131063Y-317500D01*
X-177800Y-317500D01*
X-141477Y-317500D02*
G01*
X-105156Y-374650D01*
X-44704Y-265684D02*
G01*
X-60452Y-270763D01*
X-65531Y-281178D01*
X-65531Y-291592D01*
X-60452Y-302005D01*
X-50038Y-307339D01*
X-29209Y-312420D01*
X-13715Y-317500D01*
X-3302Y-327913D01*
X2031Y-338328D01*
X2031Y-354076D01*
X-3302Y-364489D01*
X-8381Y-369570D01*
X-24129Y-374650D01*
X-44704Y-374650D01*
X-60452Y-369570D01*
X-65531Y-364489D01*
X-70865Y-354076D01*
X-70865Y-338328D01*
X-65531Y-327913D01*
X-55118Y-317500D01*
X-39624Y-312420D01*
X-18795Y-307339D01*
X-8381Y-302005D01*
X-3302Y-291592D01*
X-3302Y-281178D01*
X-8381Y-270763D01*
X-24129Y-265684D01*
X-44704Y-265684D01*
X1092708Y-90678D02*
G01*
X1103122Y-85344D01*
X1113536Y-74929D01*
X1118615Y-64770D01*
X1118615Y-43942D01*
X1113536Y-33528D01*
X1103122Y-23113D01*
X1092708Y-17779D01*
X1076959Y-12700D01*
X1051052Y-12700D01*
X1035558Y-17779D01*
X1025143Y-23113D01*
X1014729Y-33528D01*
X1009650Y-43942D01*
X1009650Y-64770D01*
X1014729Y-74929D01*
X1025143Y-85344D01*
X1035558Y-90678D01*
X1097788Y-124968D02*
G01*
X1103122Y-135381D01*
X1118615Y-150876D01*
X1009650Y-150876D01*
X-50800Y-113284D02*
G01*
X-50800Y-191262D01*
X-45720Y-206755D01*
X-35306Y-217170D01*
X-19558Y-222250D01*
X-9143Y-222250D01*
X6350Y-217170D01*
X16763Y-206755D01*
X21843Y-191262D01*
X21843Y-113284D01*
X66547Y-113284D02*
G01*
X123697Y-113284D01*
X92709Y-154939D01*
X108204Y-154939D01*
X118618Y-160020D01*
X123697Y-165100D01*
X129031Y-180847D01*
X129031Y-191262D01*
X123697Y-206755D01*
X113284Y-217170D01*
X97790Y-222250D01*
X82295Y-222250D01*
X66547Y-217170D01*
X61468Y-212089D01*
X56134Y-201676D01*
G36*
X296926Y-287680D02*
G01*
X310896Y-300431D01*
X325374Y-312572D01*
X340410Y-324053D01*
X355955Y-334873D01*
X371906Y-344982D01*
X388315Y-354431D01*
X405130Y-363118D01*
X422249Y-371094D01*
X439724Y-378307D01*
X457504Y-384759D01*
X475589Y-390448D01*
X493826Y-395325D01*
X512318Y-399389D01*
X530961Y-402691D01*
X549706Y-405130D01*
X568553Y-406755D01*
X587451Y-407619D01*
X606348Y-407619D01*
X625246Y-406755D01*
X644093Y-405130D01*
X662838Y-402691D01*
X681482Y-399389D01*
X699973Y-395325D01*
X718210Y-390448D01*
X736295Y-384759D01*
X754075Y-378307D01*
X771550Y-371094D01*
X788670Y-363118D01*
X805484Y-354431D01*
X821893Y-344982D01*
X837844Y-334873D01*
X853389Y-324053D01*
X868426Y-312572D01*
X882903Y-300431D01*
X896874Y-287680D01*
G37*
D10*
X-805403Y511004D02*
G01*
X754598Y511004D01*
X754598Y251005D01*
X-805403Y251005D01*
X-805403Y511004D01*
X177800Y190500D02*
G01*
X177800Y-12700D01*
X177800Y-12700D02*
G01*
X-431800Y-12700D01*
X-431800Y190500D02*
G01*
X177800Y190500D01*
X-431800Y-12700D02*
G01*
X-431800Y190500D01*
X-431800Y-228600D02*
G01*
X-431800Y-25400D01*
X-431800Y-25400D02*
G01*
X177800Y-25400D01*
X177800Y-228600D02*
G01*
X-431800Y-228600D01*
X177800Y-25400D02*
G01*
X177800Y-228600D01*
X716899Y207299D02*
G01*
X716899Y331759D01*
X649589Y269529D02*
G01*
X784209Y269529D01*
X-805403Y-276395D02*
G01*
X754598Y-276395D01*
X754598Y-536394D01*
X-805403Y-536394D01*
X-805403Y-276395D01*
G75*
G01*
X996950Y-12954D02*
G03*
X996950Y-20066I-399984J-3556D01*
M02*
