G04 Layer: BottomLayer*
G04 EasyEDA v6.5.5, 2022-07-15 14:42:27*
G04 532d801377d849919285b652b89c2504,d87ca97578a24c0188edd79bd05468ec,10*
G04 Gerber Generator version 0.2*
G04 Scale: 100 percent, Rotated: No, Reflected: No *
G04 Dimensions in millimeters *
G04 leading zeros omitted , absolute positions ,4 integer and 5 decimal *
%FSLAX45Y45*%
%MOMM*%

%ADD11C,2.0000*%
%ADD12C,1.8000*%
%ADD13C,0.9000*%

%LPD*%
G36*
X560120Y-785723D02*
G01*
X556310Y-785012D01*
X552958Y-782929D01*
X543763Y-774293D01*
X531977Y-765759D01*
X519226Y-758748D01*
X505714Y-753364D01*
X491591Y-749757D01*
X477164Y-747928D01*
X462635Y-747928D01*
X457301Y-748131D01*
X454406Y-747166D01*
X451916Y-745337D01*
X200863Y-494334D01*
X198678Y-491032D01*
X197916Y-487121D01*
X197916Y-312978D01*
X198678Y-309067D01*
X200863Y-305816D01*
X305816Y-200863D01*
X309067Y-198678D01*
X312978Y-197916D01*
X1211021Y-197916D01*
X1214932Y-198678D01*
X1218184Y-200863D01*
X1292758Y-275437D01*
X1294841Y-278434D01*
X1295704Y-281990D01*
X1295298Y-285648D01*
X1293571Y-288899D01*
X1287373Y-296773D01*
X1279550Y-309778D01*
X1275283Y-319278D01*
X1273048Y-322427D01*
X1269796Y-324510D01*
X1265986Y-325272D01*
X1262227Y-324510D01*
X1258976Y-322427D01*
X1256741Y-319278D01*
X1252474Y-309778D01*
X1244600Y-296773D01*
X1235252Y-284835D01*
X1224483Y-274066D01*
X1212494Y-264668D01*
X1199489Y-256844D01*
X1185621Y-250596D01*
X1171143Y-246075D01*
X1156157Y-243332D01*
X1141018Y-242417D01*
X1125829Y-243332D01*
X1110894Y-246075D01*
X1096365Y-250596D01*
X1082497Y-256844D01*
X1069492Y-264668D01*
X1057503Y-274066D01*
X1046784Y-284835D01*
X1037386Y-296773D01*
X1029512Y-309778D01*
X1025245Y-319278D01*
X1023061Y-322427D01*
X1019810Y-324510D01*
X1016000Y-325272D01*
X1012190Y-324510D01*
X1008938Y-322427D01*
X1006754Y-319278D01*
X1002487Y-309778D01*
X994613Y-296773D01*
X985215Y-284835D01*
X974496Y-274066D01*
X962507Y-264668D01*
X949502Y-256844D01*
X935634Y-250596D01*
X921105Y-246075D01*
X906170Y-243332D01*
X890981Y-242417D01*
X875842Y-243332D01*
X860856Y-246075D01*
X846378Y-250596D01*
X832510Y-256844D01*
X819505Y-264668D01*
X807516Y-274066D01*
X796747Y-284835D01*
X787400Y-296773D01*
X779526Y-309778D01*
X775258Y-319278D01*
X773023Y-322427D01*
X769772Y-324510D01*
X766013Y-325272D01*
X762203Y-324510D01*
X758952Y-322427D01*
X756716Y-319278D01*
X752449Y-309778D01*
X744626Y-296773D01*
X735228Y-284835D01*
X724458Y-274066D01*
X712520Y-264668D01*
X699516Y-256844D01*
X685647Y-250596D01*
X671118Y-246075D01*
X656183Y-243332D01*
X640994Y-242417D01*
X625805Y-243332D01*
X610870Y-246075D01*
X596341Y-250596D01*
X582523Y-256844D01*
X569468Y-264668D01*
X557530Y-274066D01*
X546760Y-284835D01*
X537413Y-296773D01*
X529539Y-309778D01*
X525272Y-319278D01*
X523036Y-322427D01*
X519785Y-324510D01*
X516026Y-325272D01*
X512216Y-324510D01*
X508965Y-322427D01*
X506730Y-319278D01*
X502462Y-309778D01*
X494588Y-296773D01*
X485241Y-284835D01*
X474472Y-274066D01*
X462534Y-264668D01*
X449529Y-256844D01*
X435660Y-250596D01*
X421132Y-246075D01*
X406196Y-243332D01*
X391007Y-242417D01*
X375818Y-243332D01*
X360883Y-246075D01*
X346354Y-250596D01*
X332486Y-256844D01*
X319481Y-264668D01*
X307543Y-274066D01*
X296773Y-284835D01*
X287375Y-296773D01*
X279552Y-309778D01*
X273304Y-323646D01*
X268782Y-338175D01*
X266039Y-353110D01*
X265125Y-368300D01*
X266039Y-383489D01*
X268782Y-398424D01*
X273304Y-412953D01*
X279552Y-426821D01*
X287375Y-439826D01*
X296773Y-451764D01*
X307543Y-462534D01*
X319481Y-471881D01*
X332486Y-479755D01*
X346354Y-486003D01*
X360883Y-490524D01*
X375818Y-493268D01*
X391007Y-494182D01*
X406196Y-493268D01*
X421132Y-490524D01*
X435660Y-486003D01*
X449529Y-479755D01*
X462534Y-471881D01*
X474472Y-462534D01*
X485241Y-451764D01*
X494588Y-439826D01*
X502462Y-426821D01*
X506730Y-417322D01*
X508965Y-414172D01*
X512216Y-412089D01*
X516026Y-411327D01*
X519785Y-412089D01*
X523036Y-414172D01*
X525272Y-417322D01*
X529539Y-426821D01*
X537413Y-439826D01*
X546760Y-451764D01*
X557530Y-462534D01*
X566216Y-469341D01*
X568299Y-471525D01*
X569620Y-474319D01*
X570077Y-477316D01*
X570077Y-775563D01*
X569315Y-779373D01*
X567182Y-782675D01*
X563981Y-784860D01*
G37*

%LPD*%
G36*
X1544878Y-970483D02*
G01*
X1540967Y-969721D01*
X1537716Y-967536D01*
X1451711Y-881532D01*
X1449374Y-877925D01*
X1448765Y-873709D01*
X1449374Y-863600D01*
X1448460Y-849071D01*
X1445768Y-834796D01*
X1441246Y-820928D01*
X1435049Y-807770D01*
X1427276Y-795477D01*
X1417980Y-784250D01*
X1407363Y-774293D01*
X1395577Y-765759D01*
X1382826Y-758748D01*
X1369314Y-753364D01*
X1355191Y-749757D01*
X1340764Y-747928D01*
X1326235Y-747928D01*
X1311808Y-749757D01*
X1297686Y-753364D01*
X1284173Y-758748D01*
X1271422Y-765759D01*
X1259636Y-774293D01*
X1249019Y-784250D01*
X1239723Y-795477D01*
X1228953Y-812393D01*
X1225651Y-814425D01*
X1221790Y-815086D01*
X1217980Y-814222D01*
X1214780Y-811987D01*
X1212646Y-808736D01*
X1211884Y-804926D01*
X1211884Y-477316D01*
X1212342Y-474319D01*
X1213713Y-471576D01*
X1215796Y-469341D01*
X1224483Y-462534D01*
X1235252Y-451764D01*
X1244600Y-439826D01*
X1252474Y-426821D01*
X1256741Y-417322D01*
X1258976Y-414172D01*
X1262227Y-412089D01*
X1265986Y-411327D01*
X1269796Y-412089D01*
X1273048Y-414172D01*
X1275283Y-417322D01*
X1279550Y-426821D01*
X1287373Y-439826D01*
X1296771Y-451764D01*
X1307541Y-462534D01*
X1319479Y-471881D01*
X1332484Y-479755D01*
X1346352Y-486003D01*
X1360881Y-490524D01*
X1375816Y-493268D01*
X1391005Y-494182D01*
X1406194Y-493268D01*
X1421130Y-490524D01*
X1435658Y-486003D01*
X1449527Y-479755D01*
X1462532Y-471881D01*
X1474470Y-462534D01*
X1485239Y-451764D01*
X1494586Y-439826D01*
X1502460Y-426821D01*
X1506728Y-417322D01*
X1508963Y-414172D01*
X1512214Y-412089D01*
X1516024Y-411327D01*
X1519783Y-412089D01*
X1523034Y-414172D01*
X1525270Y-417322D01*
X1529537Y-426821D01*
X1537411Y-439826D01*
X1546758Y-451764D01*
X1557528Y-462534D01*
X1566214Y-469341D01*
X1568297Y-471525D01*
X1569618Y-474268D01*
X1570075Y-477316D01*
X1570075Y-767791D01*
X1569567Y-770940D01*
X1568145Y-773785D01*
X1553819Y-787044D01*
X1544523Y-798271D01*
X1536750Y-810564D01*
X1530553Y-823721D01*
X1526032Y-837590D01*
X1523339Y-851865D01*
X1522425Y-866394D01*
X1523339Y-880922D01*
X1526032Y-895197D01*
X1530553Y-909066D01*
X1536750Y-922223D01*
X1544523Y-934516D01*
X1553819Y-945743D01*
X1561490Y-952906D01*
X1563827Y-956208D01*
X1564690Y-960119D01*
X1563979Y-964082D01*
X1561795Y-967435D01*
X1558493Y-969721D01*
X1554530Y-970483D01*
G37*

%LPD*%
G36*
X560120Y-1077823D02*
G01*
X556310Y-1077112D01*
X552958Y-1075029D01*
X544017Y-1066647D01*
X541629Y-1063244D01*
X540816Y-1059230D01*
X540816Y-960069D01*
X541629Y-956056D01*
X544017Y-952652D01*
X552958Y-944270D01*
X556310Y-942187D01*
X560120Y-941476D01*
X563981Y-942340D01*
X567182Y-944524D01*
X569315Y-947826D01*
X570077Y-951636D01*
X570077Y-1067663D01*
X569315Y-1071473D01*
X567182Y-1074775D01*
X563981Y-1076960D01*
G37*

%LPD*%
G36*
X1221790Y-1107186D02*
G01*
X1217980Y-1106322D01*
X1214780Y-1104087D01*
X1212646Y-1100836D01*
X1211884Y-1097026D01*
X1211884Y-922274D01*
X1212646Y-918464D01*
X1214780Y-915212D01*
X1217980Y-912977D01*
X1221790Y-912114D01*
X1225651Y-912774D01*
X1228953Y-914806D01*
X1239723Y-931722D01*
X1249019Y-942949D01*
X1259636Y-952906D01*
X1271422Y-961440D01*
X1284173Y-968451D01*
X1297686Y-973836D01*
X1311808Y-977442D01*
X1326235Y-979271D01*
X1340764Y-979271D01*
X1346098Y-979068D01*
X1348994Y-980033D01*
X1351483Y-981862D01*
X1420876Y-1051255D01*
X1423212Y-1054862D01*
X1423822Y-1059129D01*
X1422654Y-1063244D01*
X1419860Y-1066546D01*
X1415948Y-1068374D01*
X1411681Y-1068425D01*
X1407718Y-1066647D01*
X1395577Y-1057859D01*
X1382826Y-1050848D01*
X1369314Y-1045464D01*
X1355191Y-1041857D01*
X1340764Y-1040028D01*
X1326235Y-1040028D01*
X1311808Y-1041857D01*
X1297686Y-1045464D01*
X1284173Y-1050848D01*
X1271422Y-1057859D01*
X1259636Y-1066393D01*
X1249019Y-1076350D01*
X1239723Y-1087577D01*
X1228953Y-1104493D01*
X1225651Y-1106525D01*
G37*

%LPD*%
G36*
X1016000Y-1620672D02*
G01*
X1012190Y-1619910D01*
X1008938Y-1617827D01*
X1006754Y-1614678D01*
X1002487Y-1605178D01*
X994613Y-1592173D01*
X985215Y-1580235D01*
X974496Y-1569466D01*
X965809Y-1562658D01*
X963726Y-1560423D01*
X962355Y-1557680D01*
X961898Y-1554683D01*
X961898Y-477316D01*
X962355Y-474319D01*
X963726Y-471525D01*
X965809Y-469341D01*
X974496Y-462534D01*
X985215Y-451764D01*
X994613Y-439826D01*
X1002487Y-426821D01*
X1006754Y-417322D01*
X1008938Y-414172D01*
X1012190Y-412089D01*
X1016000Y-411327D01*
X1019810Y-412089D01*
X1023061Y-414172D01*
X1025245Y-417322D01*
X1029512Y-426821D01*
X1037386Y-439826D01*
X1046784Y-451764D01*
X1057503Y-462534D01*
X1066190Y-469341D01*
X1068273Y-471525D01*
X1069644Y-474319D01*
X1070102Y-477316D01*
X1070102Y-1554683D01*
X1069644Y-1557680D01*
X1068273Y-1560474D01*
X1066190Y-1562658D01*
X1057503Y-1569466D01*
X1046784Y-1580235D01*
X1037386Y-1592173D01*
X1029512Y-1605178D01*
X1025245Y-1614678D01*
X1023061Y-1617827D01*
X1019810Y-1619910D01*
G37*

%LPD*%
G36*
X1265986Y-1620672D02*
G01*
X1262227Y-1619910D01*
X1258976Y-1617827D01*
X1256741Y-1614678D01*
X1252474Y-1605178D01*
X1244600Y-1592173D01*
X1235252Y-1580235D01*
X1224483Y-1569466D01*
X1215796Y-1562658D01*
X1213713Y-1560423D01*
X1212342Y-1557680D01*
X1211884Y-1554683D01*
X1211884Y-1214374D01*
X1212646Y-1210564D01*
X1214780Y-1207312D01*
X1217980Y-1205077D01*
X1221790Y-1204214D01*
X1225651Y-1204874D01*
X1228953Y-1206906D01*
X1239723Y-1223822D01*
X1249019Y-1235049D01*
X1259636Y-1245006D01*
X1271422Y-1253540D01*
X1284173Y-1260551D01*
X1297686Y-1265936D01*
X1312468Y-1269695D01*
X1316431Y-1271727D01*
X1319123Y-1275232D01*
X1320088Y-1279550D01*
X1320088Y-1554683D01*
X1319631Y-1557680D01*
X1318310Y-1560423D01*
X1316228Y-1562658D01*
X1307541Y-1569466D01*
X1296771Y-1580235D01*
X1287373Y-1592173D01*
X1279550Y-1605178D01*
X1275283Y-1614678D01*
X1273048Y-1617827D01*
X1269796Y-1619910D01*
G37*

%LPD*%
G36*
X766013Y-1620672D02*
G01*
X762203Y-1619910D01*
X758952Y-1617827D01*
X756716Y-1614678D01*
X752449Y-1605178D01*
X744626Y-1592173D01*
X735228Y-1580235D01*
X724458Y-1569466D01*
X715772Y-1562658D01*
X713689Y-1560423D01*
X712368Y-1557680D01*
X711911Y-1554683D01*
X711911Y-477316D01*
X712368Y-474319D01*
X713689Y-471576D01*
X715772Y-469341D01*
X724458Y-462534D01*
X735228Y-451764D01*
X744626Y-439826D01*
X752449Y-426821D01*
X756716Y-417322D01*
X758952Y-414172D01*
X762203Y-412089D01*
X766013Y-411327D01*
X769772Y-412089D01*
X773023Y-414172D01*
X775258Y-417322D01*
X779526Y-426821D01*
X787400Y-439826D01*
X796747Y-451764D01*
X807516Y-462534D01*
X816203Y-469341D01*
X818286Y-471576D01*
X819658Y-474319D01*
X820115Y-477316D01*
X820115Y-1554683D01*
X819658Y-1557680D01*
X818286Y-1560423D01*
X816203Y-1562658D01*
X807516Y-1569466D01*
X796747Y-1580235D01*
X787400Y-1592173D01*
X779526Y-1605178D01*
X775258Y-1614678D01*
X773023Y-1617827D01*
X769772Y-1619910D01*
G37*

%LPD*%
G36*
X1516024Y-1620672D02*
G01*
X1512214Y-1619910D01*
X1508963Y-1617827D01*
X1506728Y-1614678D01*
X1502460Y-1605178D01*
X1494586Y-1592173D01*
X1485239Y-1580235D01*
X1474470Y-1569466D01*
X1465783Y-1562658D01*
X1463700Y-1560423D01*
X1462379Y-1557680D01*
X1461922Y-1554683D01*
X1461922Y-1213612D01*
X1461008Y-1202131D01*
X1458417Y-1191310D01*
X1454150Y-1181049D01*
X1450086Y-1174343D01*
X1448866Y-1171498D01*
X1448612Y-1168400D01*
X1449374Y-1155700D01*
X1448460Y-1141171D01*
X1445768Y-1126896D01*
X1441246Y-1113028D01*
X1435049Y-1099870D01*
X1427276Y-1087577D01*
X1421130Y-1080211D01*
X1419148Y-1076299D01*
X1418996Y-1071930D01*
X1420672Y-1067866D01*
X1423924Y-1064920D01*
X1428089Y-1063599D01*
X1432458Y-1064158D01*
X1436166Y-1066546D01*
X1460855Y-1091234D01*
X1469644Y-1098753D01*
X1479143Y-1104544D01*
X1489405Y-1108811D01*
X1500225Y-1111402D01*
X1511706Y-1112316D01*
X1554530Y-1112316D01*
X1558493Y-1113078D01*
X1561795Y-1115364D01*
X1563979Y-1118717D01*
X1564690Y-1122680D01*
X1563827Y-1126591D01*
X1561490Y-1129893D01*
X1553819Y-1137056D01*
X1544523Y-1148283D01*
X1536750Y-1160576D01*
X1530553Y-1173734D01*
X1526032Y-1187602D01*
X1523339Y-1201877D01*
X1522425Y-1216406D01*
X1523339Y-1230934D01*
X1526032Y-1245209D01*
X1530553Y-1259078D01*
X1536750Y-1272235D01*
X1544523Y-1284528D01*
X1553819Y-1295755D01*
X1564182Y-1305458D01*
X1566570Y-1308862D01*
X1567383Y-1312875D01*
X1567383Y-1556766D01*
X1566926Y-1559814D01*
X1565605Y-1562557D01*
X1563522Y-1564792D01*
X1557528Y-1569466D01*
X1546758Y-1580235D01*
X1537411Y-1592173D01*
X1529537Y-1605178D01*
X1525270Y-1614678D01*
X1523034Y-1617827D01*
X1519783Y-1619910D01*
G37*

%LPD*%
G36*
X1074978Y-1821383D02*
G01*
X1071067Y-1820621D01*
X1067816Y-1818436D01*
X996442Y-1747062D01*
X994054Y-1743303D01*
X993546Y-1738884D01*
X994968Y-1734616D01*
X1002487Y-1722221D01*
X1006754Y-1712722D01*
X1008938Y-1709572D01*
X1012190Y-1707489D01*
X1016000Y-1706727D01*
X1019810Y-1707489D01*
X1023061Y-1709572D01*
X1025245Y-1712722D01*
X1029512Y-1722221D01*
X1037386Y-1735226D01*
X1046784Y-1747164D01*
X1057503Y-1757934D01*
X1069492Y-1767281D01*
X1082497Y-1775155D01*
X1096365Y-1781403D01*
X1110894Y-1785924D01*
X1125829Y-1788668D01*
X1141018Y-1789582D01*
X1156157Y-1788668D01*
X1171143Y-1785924D01*
X1185621Y-1781403D01*
X1199489Y-1775155D01*
X1212494Y-1767281D01*
X1224483Y-1757934D01*
X1235252Y-1747164D01*
X1244600Y-1735226D01*
X1252474Y-1722221D01*
X1256741Y-1712722D01*
X1258976Y-1709572D01*
X1262227Y-1707489D01*
X1265986Y-1706727D01*
X1269796Y-1707489D01*
X1273048Y-1709572D01*
X1275283Y-1712722D01*
X1279550Y-1722221D01*
X1287373Y-1735226D01*
X1296771Y-1747164D01*
X1307541Y-1757934D01*
X1319479Y-1767281D01*
X1332484Y-1775155D01*
X1346352Y-1781403D01*
X1360881Y-1785924D01*
X1375816Y-1788668D01*
X1391005Y-1789582D01*
X1406194Y-1788668D01*
X1421130Y-1785924D01*
X1435658Y-1781403D01*
X1449527Y-1775155D01*
X1462532Y-1767281D01*
X1474470Y-1757934D01*
X1485239Y-1747164D01*
X1494586Y-1735226D01*
X1502460Y-1722221D01*
X1506728Y-1712722D01*
X1508963Y-1709572D01*
X1512214Y-1707489D01*
X1516024Y-1706727D01*
X1519783Y-1707489D01*
X1523034Y-1709572D01*
X1525270Y-1712722D01*
X1529537Y-1722221D01*
X1537411Y-1735226D01*
X1546758Y-1747164D01*
X1557528Y-1757934D01*
X1569466Y-1767281D01*
X1582521Y-1775155D01*
X1596339Y-1781403D01*
X1610868Y-1785924D01*
X1625803Y-1788668D01*
X1640992Y-1789582D01*
X1656181Y-1788668D01*
X1671116Y-1785924D01*
X1685645Y-1781403D01*
X1699514Y-1775155D01*
X1712518Y-1767281D01*
X1724507Y-1757934D01*
X1735226Y-1747164D01*
X1744624Y-1735226D01*
X1752447Y-1722221D01*
X1758696Y-1708353D01*
X1763217Y-1693824D01*
X1765960Y-1678889D01*
X1766874Y-1663700D01*
X1765960Y-1648510D01*
X1763217Y-1633575D01*
X1758696Y-1619046D01*
X1752447Y-1605178D01*
X1744624Y-1592173D01*
X1735226Y-1580235D01*
X1724507Y-1569466D01*
X1713077Y-1560576D01*
X1710994Y-1558340D01*
X1709674Y-1555597D01*
X1709216Y-1552549D01*
X1709216Y-1312875D01*
X1710029Y-1308862D01*
X1712417Y-1305458D01*
X1722780Y-1295755D01*
X1732076Y-1284528D01*
X1739849Y-1272235D01*
X1746046Y-1259078D01*
X1750568Y-1245209D01*
X1753260Y-1230934D01*
X1754174Y-1216406D01*
X1753260Y-1201877D01*
X1750568Y-1187602D01*
X1746046Y-1173734D01*
X1739849Y-1160576D01*
X1734210Y-1151686D01*
X1732737Y-1147724D01*
X1732991Y-1143508D01*
X1734921Y-1139799D01*
X1738223Y-1137158D01*
X1742287Y-1136091D01*
X1746453Y-1136751D01*
X1749958Y-1139037D01*
X1805736Y-1194816D01*
X1807921Y-1198067D01*
X1808683Y-1201978D01*
X1808683Y-1706321D01*
X1807921Y-1710232D01*
X1805736Y-1713484D01*
X1700784Y-1818436D01*
X1697532Y-1820621D01*
X1693621Y-1821383D01*
G37*

%LPD*%
G36*
X36068Y-1974088D02*
G01*
X32156Y-1973325D01*
X28905Y-1971090D01*
X26670Y-1967839D01*
X25908Y-1963928D01*
X25908Y-36068D01*
X26670Y-32156D01*
X28905Y-28905D01*
X32156Y-26670D01*
X36068Y-25908D01*
X1963928Y-25908D01*
X1967839Y-26670D01*
X1971090Y-28905D01*
X1973325Y-32156D01*
X1974088Y-36068D01*
X1974088Y-1963928D01*
X1973325Y-1967839D01*
X1971090Y-1971090D01*
X1967839Y-1973325D01*
X1963928Y-1974088D01*
X1764995Y-1974088D01*
X1760728Y-1973173D01*
X1757273Y-1970532D01*
X1755190Y-1966671D01*
X1754936Y-1962353D01*
X1756562Y-1958289D01*
X1759661Y-1955241D01*
X1768856Y-1949653D01*
X1777644Y-1942134D01*
X1929434Y-1790344D01*
X1936953Y-1781556D01*
X1942744Y-1772056D01*
X1947011Y-1761794D01*
X1949602Y-1750974D01*
X1950516Y-1739493D01*
X1950516Y-1168806D01*
X1949602Y-1157325D01*
X1947011Y-1146505D01*
X1942744Y-1136243D01*
X1936953Y-1126744D01*
X1929434Y-1117955D01*
X1803044Y-991565D01*
X1794256Y-984046D01*
X1784756Y-978255D01*
X1774494Y-973988D01*
X1763674Y-971397D01*
X1752193Y-970483D01*
X1722069Y-970483D01*
X1718106Y-969721D01*
X1714804Y-967435D01*
X1712620Y-964082D01*
X1711909Y-960119D01*
X1712772Y-956208D01*
X1715109Y-952906D01*
X1722780Y-945743D01*
X1732076Y-934516D01*
X1739849Y-922223D01*
X1746046Y-909066D01*
X1750568Y-895197D01*
X1753260Y-880922D01*
X1754174Y-866394D01*
X1753260Y-851865D01*
X1750568Y-837590D01*
X1746046Y-823721D01*
X1739849Y-810564D01*
X1732076Y-798271D01*
X1722780Y-787044D01*
X1715109Y-779881D01*
X1712722Y-776478D01*
X1711909Y-772464D01*
X1711909Y-477316D01*
X1712366Y-474319D01*
X1713687Y-471576D01*
X1715770Y-469341D01*
X1724507Y-462534D01*
X1735226Y-451764D01*
X1744624Y-439826D01*
X1752447Y-426821D01*
X1758696Y-412953D01*
X1763217Y-398424D01*
X1765960Y-383489D01*
X1766874Y-368300D01*
X1765960Y-353110D01*
X1763217Y-338175D01*
X1758696Y-323646D01*
X1752447Y-309778D01*
X1744624Y-296773D01*
X1735226Y-284835D01*
X1724507Y-274066D01*
X1712518Y-264668D01*
X1699514Y-256844D01*
X1685645Y-250596D01*
X1671116Y-246075D01*
X1656181Y-243332D01*
X1640992Y-242417D01*
X1625803Y-243332D01*
X1610868Y-246075D01*
X1596339Y-250596D01*
X1582521Y-256844D01*
X1569466Y-264668D01*
X1557528Y-274066D01*
X1546758Y-284835D01*
X1537411Y-296773D01*
X1529537Y-309778D01*
X1525270Y-319278D01*
X1523034Y-322427D01*
X1519783Y-324510D01*
X1516024Y-325272D01*
X1512214Y-324510D01*
X1508963Y-322427D01*
X1506728Y-319278D01*
X1502460Y-309778D01*
X1494586Y-296773D01*
X1485239Y-284835D01*
X1474470Y-274066D01*
X1464157Y-265988D01*
X1461871Y-263448D01*
X1460550Y-260350D01*
X1458417Y-251510D01*
X1454150Y-241249D01*
X1448358Y-231749D01*
X1440840Y-222961D01*
X1295044Y-77165D01*
X1286256Y-69646D01*
X1276756Y-63855D01*
X1266494Y-59588D01*
X1255674Y-56997D01*
X1244193Y-56083D01*
X279806Y-56083D01*
X268325Y-56997D01*
X257505Y-59588D01*
X247243Y-63855D01*
X237744Y-69646D01*
X228955Y-77165D01*
X77165Y-228955D01*
X69646Y-237744D01*
X63855Y-247243D01*
X59588Y-257505D01*
X56997Y-268325D01*
X56083Y-279806D01*
X56083Y-520293D01*
X56997Y-531774D01*
X59588Y-542594D01*
X63855Y-552907D01*
X69646Y-562356D01*
X77165Y-571144D01*
X351688Y-845667D01*
X354025Y-849274D01*
X354634Y-853490D01*
X354025Y-863600D01*
X354939Y-878128D01*
X357632Y-892403D01*
X362153Y-906271D01*
X368350Y-919429D01*
X376123Y-931722D01*
X385419Y-942949D01*
X395782Y-952652D01*
X398170Y-956056D01*
X398983Y-960069D01*
X398983Y-1059230D01*
X398170Y-1063244D01*
X395782Y-1066647D01*
X385419Y-1076350D01*
X376123Y-1087577D01*
X368350Y-1099870D01*
X362153Y-1113028D01*
X357632Y-1126896D01*
X354939Y-1141171D01*
X354025Y-1155700D01*
X354939Y-1170228D01*
X357632Y-1184503D01*
X362153Y-1198372D01*
X368350Y-1211529D01*
X376123Y-1223822D01*
X385419Y-1235049D01*
X396036Y-1245006D01*
X407822Y-1253540D01*
X420573Y-1260551D01*
X434085Y-1265936D01*
X448208Y-1269542D01*
X462635Y-1271371D01*
X477164Y-1271371D01*
X491591Y-1269542D01*
X505714Y-1265936D01*
X519226Y-1260551D01*
X531977Y-1253540D01*
X543763Y-1245006D01*
X552958Y-1236370D01*
X556310Y-1234287D01*
X560120Y-1233576D01*
X563981Y-1234440D01*
X567182Y-1236624D01*
X569315Y-1239926D01*
X570077Y-1243736D01*
X570077Y-1554683D01*
X569620Y-1557680D01*
X568299Y-1560474D01*
X566216Y-1562658D01*
X557530Y-1569466D01*
X546760Y-1580235D01*
X537413Y-1592173D01*
X529539Y-1605178D01*
X525272Y-1614678D01*
X523036Y-1617827D01*
X519785Y-1619910D01*
X516026Y-1620672D01*
X512216Y-1619910D01*
X508965Y-1617827D01*
X506730Y-1614678D01*
X502462Y-1605178D01*
X494588Y-1592173D01*
X485241Y-1580235D01*
X474472Y-1569466D01*
X462534Y-1560068D01*
X449529Y-1552244D01*
X435660Y-1545996D01*
X421132Y-1541475D01*
X406196Y-1538732D01*
X391007Y-1537817D01*
X375818Y-1538732D01*
X360883Y-1541475D01*
X346354Y-1545996D01*
X332486Y-1552244D01*
X319481Y-1560068D01*
X307543Y-1569466D01*
X296773Y-1580235D01*
X287375Y-1592173D01*
X279552Y-1605178D01*
X273304Y-1619046D01*
X268782Y-1633575D01*
X266039Y-1648510D01*
X265125Y-1663700D01*
X266039Y-1678889D01*
X268782Y-1693824D01*
X273304Y-1708353D01*
X279552Y-1722221D01*
X287375Y-1735226D01*
X296773Y-1747164D01*
X307543Y-1757934D01*
X319481Y-1767281D01*
X332486Y-1775155D01*
X346354Y-1781403D01*
X360883Y-1785924D01*
X375818Y-1788668D01*
X391007Y-1789582D01*
X406196Y-1788668D01*
X421132Y-1785924D01*
X435660Y-1781403D01*
X449529Y-1775155D01*
X462534Y-1767281D01*
X474472Y-1757934D01*
X485241Y-1747164D01*
X494588Y-1735226D01*
X502462Y-1722221D01*
X506730Y-1712722D01*
X508965Y-1709572D01*
X512216Y-1707489D01*
X516026Y-1706727D01*
X519785Y-1707489D01*
X523036Y-1709572D01*
X525272Y-1712722D01*
X529539Y-1722221D01*
X537413Y-1735226D01*
X546760Y-1747164D01*
X557530Y-1757934D01*
X569468Y-1767281D01*
X582523Y-1775155D01*
X596341Y-1781403D01*
X610870Y-1785924D01*
X625805Y-1788668D01*
X640994Y-1789582D01*
X656183Y-1788668D01*
X671118Y-1785924D01*
X685647Y-1781403D01*
X699516Y-1775155D01*
X712520Y-1767281D01*
X724458Y-1757934D01*
X735228Y-1747164D01*
X744626Y-1735226D01*
X752449Y-1722221D01*
X756716Y-1712722D01*
X758952Y-1709572D01*
X762203Y-1707489D01*
X766013Y-1706727D01*
X769772Y-1707489D01*
X773023Y-1709572D01*
X775258Y-1712722D01*
X779526Y-1722221D01*
X787400Y-1735226D01*
X796747Y-1747164D01*
X807516Y-1757934D01*
X819505Y-1767281D01*
X824077Y-1770075D01*
X826008Y-1771548D01*
X827481Y-1773478D01*
X833678Y-1783588D01*
X841197Y-1792376D01*
X990955Y-1942134D01*
X999744Y-1949653D01*
X1008938Y-1955241D01*
X1012037Y-1958289D01*
X1013663Y-1962353D01*
X1013409Y-1966671D01*
X1011326Y-1970532D01*
X1007871Y-1973173D01*
X1003604Y-1974088D01*
G37*

%LPD*%
D13*
X469900Y-1155700D02*
G01*
X469900Y-863600D01*
X891006Y-368300D02*
G01*
X891006Y-1663697D01*
X891009Y-1663700D01*
X1391005Y-1663700D02*
G01*
X1391005Y-1213205D01*
X1333500Y-1155700D01*
X1640992Y-1663700D02*
G01*
X1638300Y-1661007D01*
X1638300Y-1216405D01*
X1638300Y-866396D02*
G01*
X1640992Y-863704D01*
X1640992Y-368300D01*
X1140993Y-368300D02*
G01*
X1140993Y-1663697D01*
X1140990Y-1663700D01*
X469900Y-863600D02*
G01*
X127000Y-520705D01*
X127000Y-279400D01*
X279400Y-127000D01*
X1244600Y-127000D01*
X1391005Y-273405D01*
X1391005Y-368300D01*
X891031Y-1663700D02*
G01*
X891031Y-1741931D01*
X1041400Y-1892300D01*
X1727200Y-1892300D01*
X1879600Y-1739900D01*
X1879600Y-1168400D01*
X1752600Y-1041400D01*
X1511300Y-1041400D01*
X1333500Y-863600D01*
X640989Y-1663700D02*
G01*
X640994Y-1663694D01*
X640994Y-368300D01*
D11*
G01*
X391007Y-368300D03*
G01*
X640994Y-368300D03*
G01*
X891006Y-368300D03*
G01*
X1140993Y-368300D03*
G01*
X1391005Y-368300D03*
G01*
X1640992Y-368300D03*
D12*
G01*
X469900Y-863600D03*
G01*
X1333500Y-863600D03*
G01*
X1333500Y-1155700D03*
G01*
X469900Y-1155700D03*
G01*
X1638300Y-1216405D03*
G01*
X1638300Y-866394D03*
D11*
G01*
X391007Y-1663700D03*
G01*
X640994Y-1663700D03*
G01*
X891006Y-1663700D03*
G01*
X1140993Y-1663700D03*
G01*
X1391005Y-1663700D03*
G01*
X1640992Y-1663700D03*
M02*
