G04 Layer: TopSilkscreenLayer*
G04 EasyEDA v6.5.5, 2022-07-13 22:11:28*
G04 388c56e55b024576a5eedb72c528fe0a,d87ca97578a24c0188edd79bd05468ec,10*
G04 Gerber Generator version 0.2*
G04 Scale: 100 percent, Rotated: No, Reflected: No *
G04 Dimensions in millimeters *
G04 leading zeros omitted , absolute positions ,4 integer and 5 decimal *
%FSLAX45Y45*%
%MOMM*%

%ADD10C,0.2540*%
%ADD11C,0.1270*%
%ADD12C,0.2032*%
%ADD20C,0.1000*%
%ADD21C,0.1524*%

%LPD*%
D21*
X1765988Y-7303759D02*
G01*
X1765988Y-7412725D01*
X1765988Y-7303759D02*
G01*
X1812724Y-7303759D01*
X1828218Y-7308839D01*
X1833552Y-7314173D01*
X1838632Y-7324587D01*
X1838632Y-7335001D01*
X1833552Y-7345415D01*
X1828218Y-7350495D01*
X1812724Y-7355575D01*
X1765988Y-7355575D02*
G01*
X1812724Y-7355575D01*
X1828218Y-7360909D01*
X1833552Y-7365989D01*
X1838632Y-7376403D01*
X1838632Y-7392151D01*
X1833552Y-7402565D01*
X1828218Y-7407645D01*
X1812724Y-7412725D01*
X1765988Y-7412725D01*
X1914578Y-7303759D02*
G01*
X1872922Y-7412725D01*
X1914578Y-7303759D02*
G01*
X1956234Y-7412725D01*
X1888670Y-7376403D02*
G01*
X1940486Y-7376403D01*
X2026846Y-7303759D02*
G01*
X2026846Y-7412725D01*
X1990524Y-7303759D02*
G01*
X2063168Y-7303759D01*
X2097458Y-7324587D02*
G01*
X2107872Y-7319253D01*
X2123366Y-7303759D01*
X2123366Y-7412725D01*
X2947088Y-1563359D02*
G01*
X2947088Y-1672325D01*
X2947088Y-1563359D02*
G01*
X2988744Y-1672325D01*
X3030146Y-1563359D02*
G01*
X2988744Y-1672325D01*
X3030146Y-1563359D02*
G01*
X3030146Y-1672325D01*
X3064436Y-1584187D02*
G01*
X3074850Y-1578853D01*
X3090598Y-1563359D01*
X3090598Y-1672325D01*
X2439088Y-1563359D02*
G01*
X2439088Y-1672325D01*
X2439088Y-1563359D02*
G01*
X2480744Y-1672325D01*
X2522146Y-1563359D02*
G01*
X2480744Y-1672325D01*
X2522146Y-1563359D02*
G01*
X2522146Y-1672325D01*
X2561770Y-1589267D02*
G01*
X2561770Y-1584187D01*
X2566850Y-1573773D01*
X2572184Y-1568439D01*
X2582598Y-1563359D01*
X2603172Y-1563359D01*
X2613586Y-1568439D01*
X2618920Y-1573773D01*
X2624000Y-1584187D01*
X2624000Y-1594601D01*
X2618920Y-1605015D01*
X2608506Y-1620509D01*
X2556436Y-1672325D01*
X2629334Y-1672325D01*
X3262884Y-3098800D02*
G01*
X3371850Y-3098800D01*
X3262884Y-3098800D02*
G01*
X3371850Y-3026155D01*
X3262884Y-3026155D02*
G01*
X3371850Y-3026155D01*
X3283711Y-2991865D02*
G01*
X3278377Y-2981452D01*
X3262884Y-2965704D01*
X3371850Y-2965704D01*
X383161Y-1604698D02*
G01*
X460209Y-1681749D01*
X383161Y-1604698D02*
G01*
X416206Y-1571652D01*
X430756Y-1564286D01*
X438299Y-1564286D01*
X449254Y-1568058D01*
X456618Y-1575422D01*
X460390Y-1586379D01*
X460209Y-1593743D01*
X452846Y-1608292D01*
X419801Y-1641337D01*
X445482Y-1615655D02*
G01*
X511578Y-1630382D01*
X473501Y-1543812D02*
G01*
X477093Y-1532676D01*
X477273Y-1510586D01*
X554324Y-1587637D01*
X1767207Y-352732D02*
G01*
X1844255Y-429783D01*
X1767207Y-352732D02*
G01*
X1800252Y-319686D01*
X1814802Y-312320D01*
X1822345Y-312320D01*
X1833300Y-316092D01*
X1840664Y-323456D01*
X1844436Y-334413D01*
X1844255Y-341777D01*
X1836892Y-356326D01*
X1803847Y-389371D01*
X1829528Y-363689D02*
G01*
X1895624Y-378416D01*
X1864911Y-291668D02*
G01*
X1861319Y-288074D01*
X1857547Y-277119D01*
X1857547Y-269575D01*
X1861319Y-258620D01*
X1875868Y-244071D01*
X1886823Y-240299D01*
X1894367Y-240299D01*
X1905322Y-244071D01*
X1912686Y-251437D01*
X1916457Y-262392D01*
X1920049Y-280710D01*
X1919871Y-354169D01*
X1971418Y-302623D01*
X2884550Y-579501D02*
G01*
X2884550Y-688467D01*
X2884550Y-579501D02*
G01*
X2931286Y-579501D01*
X2946781Y-584580D01*
X2952115Y-589914D01*
X2957195Y-600329D01*
X2957195Y-610743D01*
X2952115Y-621156D01*
X2946781Y-626237D01*
X2931286Y-631317D01*
X2884550Y-631317D01*
X2920872Y-631317D02*
G01*
X2957195Y-688467D01*
X3001899Y-579501D02*
G01*
X3059049Y-579501D01*
X3028061Y-621156D01*
X3043554Y-621156D01*
X3053968Y-626237D01*
X3059049Y-631317D01*
X3064383Y-647064D01*
X3064383Y-657479D01*
X3059049Y-672972D01*
X3048634Y-683387D01*
X3033140Y-688467D01*
X3017647Y-688467D01*
X3001899Y-683387D01*
X2996818Y-678306D01*
X2991484Y-667893D01*
X4837811Y-576961D02*
G01*
X4837811Y-685927D01*
X4837811Y-576961D02*
G01*
X4884547Y-576961D01*
X4900040Y-582040D01*
X4905375Y-587375D01*
X4910454Y-597788D01*
X4910454Y-608203D01*
X4905375Y-618617D01*
X4900040Y-623696D01*
X4884547Y-628777D01*
X4837811Y-628777D01*
X4874133Y-628777D02*
G01*
X4910454Y-685927D01*
X4996815Y-576961D02*
G01*
X4944745Y-649604D01*
X5022722Y-649604D01*
X4996815Y-576961D02*
G01*
X4996815Y-685927D01*
X6113244Y-208765D02*
G01*
X6036193Y-285813D01*
X6113244Y-208765D02*
G01*
X6146289Y-241810D01*
X6153655Y-256359D01*
X6153655Y-263903D01*
X6149883Y-274858D01*
X6142520Y-282221D01*
X6131562Y-285993D01*
X6124199Y-285813D01*
X6109649Y-278450D01*
X6076604Y-245404D01*
X6102286Y-271086D02*
G01*
X6087559Y-337182D01*
X6233040Y-328561D02*
G01*
X6196220Y-291741D01*
X6159581Y-321195D01*
X6166764Y-321195D01*
X6181671Y-328561D01*
X6192629Y-339516D01*
X6199812Y-354243D01*
X6199992Y-368792D01*
X6192629Y-383700D01*
X6185265Y-391063D01*
X6170536Y-398246D01*
X6155809Y-398246D01*
X6141262Y-390883D01*
X6130305Y-379928D01*
X6122761Y-365201D01*
X6122761Y-358015D01*
X6126355Y-346880D01*
X7537498Y-1522376D02*
G01*
X7460447Y-1599425D01*
X7537498Y-1522376D02*
G01*
X7570543Y-1555422D01*
X7577909Y-1569971D01*
X7577909Y-1577515D01*
X7574137Y-1588470D01*
X7566774Y-1595833D01*
X7555816Y-1599605D01*
X7548453Y-1599425D01*
X7533904Y-1592061D01*
X7500858Y-1559016D01*
X7526540Y-1584698D02*
G01*
X7511813Y-1650794D01*
X7646337Y-1653128D02*
G01*
X7649931Y-1641993D01*
X7642565Y-1627444D01*
X7635201Y-1620080D01*
X7620655Y-1612717D01*
X7602156Y-1616489D01*
X7580063Y-1631038D01*
X7561745Y-1649356D01*
X7550787Y-1667855D01*
X7550787Y-1682582D01*
X7558150Y-1697131D01*
X7561922Y-1700903D01*
X7576472Y-1708266D01*
X7591198Y-1708266D01*
X7605748Y-1700903D01*
X7609519Y-1697131D01*
X7616883Y-1682582D01*
X7616883Y-1667855D01*
X7609519Y-1653308D01*
X7605748Y-1649536D01*
X7591198Y-1642173D01*
X7576472Y-1642173D01*
X7561745Y-1649356D01*
X539706Y-1010025D02*
G01*
X591253Y-1061572D01*
X522643Y-1027087D02*
G01*
X556948Y-992784D01*
X622145Y-952372D02*
G01*
X614781Y-949678D01*
X605083Y-949678D01*
X597540Y-952192D01*
X587839Y-961890D01*
X585325Y-969434D01*
X585325Y-979134D01*
X588020Y-986497D01*
X592688Y-996195D01*
X605083Y-1008588D01*
X614961Y-1013437D01*
X622145Y-1015951D01*
X631842Y-1015951D01*
X639386Y-1013437D01*
X649086Y-1003739D01*
X651601Y-996195D01*
X651601Y-986497D01*
X649086Y-979312D01*
X625916Y-923815D02*
G01*
X677463Y-975362D01*
X625916Y-923815D02*
G01*
X648007Y-901722D01*
X657885Y-896873D01*
X662914Y-896873D01*
X670100Y-899388D01*
X674949Y-904237D01*
X677463Y-911423D01*
X677463Y-916452D01*
X672614Y-926330D01*
X650521Y-948420D01*
X667765Y-931179D02*
G01*
X711768Y-941057D01*
X693628Y-856104D02*
G01*
X745175Y-907651D01*
X676386Y-873345D02*
G01*
X710689Y-839040D01*
X756310Y-793422D02*
G01*
X731883Y-817846D01*
X751461Y-842454D01*
X751461Y-837425D01*
X756310Y-827905D01*
X763673Y-820541D01*
X773371Y-815512D01*
X783429Y-815512D01*
X793130Y-820541D01*
X797979Y-825390D01*
X803008Y-835091D01*
X802827Y-844969D01*
X797979Y-854847D01*
X790615Y-862210D01*
X780915Y-866879D01*
X775886Y-866879D01*
X768522Y-864544D01*
X792050Y-757679D02*
G01*
X787201Y-767557D01*
X789716Y-779772D01*
X799414Y-794499D01*
X806780Y-801862D01*
X821507Y-811563D01*
X833719Y-814077D01*
X843597Y-809226D01*
X848446Y-804377D01*
X853297Y-794499D01*
X850783Y-782286D01*
X841082Y-767557D01*
X833719Y-760194D01*
X818992Y-750496D01*
X806780Y-747981D01*
X796902Y-752830D01*
X792050Y-757679D01*
X842520Y-707212D02*
G01*
X837671Y-717090D01*
X840186Y-729302D01*
X849884Y-744029D01*
X857247Y-751392D01*
X871976Y-761093D01*
X884189Y-763607D01*
X894067Y-758758D01*
X898916Y-753907D01*
X903765Y-744029D01*
X901250Y-731817D01*
X891552Y-717090D01*
X884189Y-709726D01*
X869462Y-700026D01*
X857247Y-697511D01*
X847369Y-702360D01*
X842520Y-707212D01*
X892990Y-656742D02*
G01*
X888141Y-666620D01*
X890653Y-678832D01*
X900353Y-693562D01*
X907717Y-700925D01*
X922444Y-710623D01*
X934659Y-713138D01*
X944537Y-708289D01*
X949385Y-703440D01*
X954234Y-693562D01*
X951720Y-681347D01*
X942022Y-666620D01*
X934659Y-659256D01*
X919929Y-649559D01*
X907717Y-647044D01*
X897839Y-651893D01*
X892990Y-656742D01*
X3498850Y-296163D02*
G01*
X3498850Y-369062D01*
X3474720Y-296163D02*
G01*
X3523234Y-296163D01*
X3597909Y-313689D02*
G01*
X3594608Y-306578D01*
X3587750Y-299720D01*
X3580638Y-296163D01*
X3566922Y-296163D01*
X3559809Y-299720D01*
X3552952Y-306578D01*
X3549650Y-313689D01*
X3546093Y-323850D01*
X3546093Y-341376D01*
X3549650Y-351789D01*
X3552952Y-358647D01*
X3559809Y-365505D01*
X3566922Y-369062D01*
X3580638Y-369062D01*
X3587750Y-365505D01*
X3594608Y-358647D01*
X3597909Y-351789D01*
X3620770Y-296163D02*
G01*
X3620770Y-369062D01*
X3620770Y-296163D02*
G01*
X3652011Y-296163D01*
X3662425Y-299720D01*
X3665981Y-303276D01*
X3669284Y-310134D01*
X3669284Y-316992D01*
X3665981Y-323850D01*
X3662425Y-327405D01*
X3652011Y-330962D01*
X3620770Y-330962D01*
X3645154Y-330962D02*
G01*
X3669284Y-369062D01*
X3716527Y-296163D02*
G01*
X3716527Y-369062D01*
X3692143Y-296163D02*
G01*
X3740658Y-296163D01*
X3805174Y-296163D02*
G01*
X3770629Y-296163D01*
X3767074Y-327405D01*
X3770629Y-323850D01*
X3780790Y-320547D01*
X3791204Y-320547D01*
X3801618Y-323850D01*
X3808729Y-330962D01*
X3812031Y-341376D01*
X3812031Y-348234D01*
X3808729Y-358647D01*
X3801618Y-365505D01*
X3791204Y-369062D01*
X3780790Y-369062D01*
X3770629Y-365505D01*
X3767074Y-361950D01*
X3763518Y-355092D01*
X3855720Y-296163D02*
G01*
X3845306Y-299720D01*
X3838447Y-310134D01*
X3834891Y-327405D01*
X3834891Y-337820D01*
X3838447Y-355092D01*
X3845306Y-365505D01*
X3855720Y-369062D01*
X3862577Y-369062D01*
X3872991Y-365505D01*
X3879850Y-355092D01*
X3883406Y-337820D01*
X3883406Y-327405D01*
X3879850Y-310134D01*
X3872991Y-299720D01*
X3862577Y-296163D01*
X3855720Y-296163D01*
X3927093Y-296163D02*
G01*
X3916679Y-299720D01*
X3909822Y-310134D01*
X3906265Y-327405D01*
X3906265Y-337820D01*
X3909822Y-355092D01*
X3916679Y-365505D01*
X3927093Y-369062D01*
X3933952Y-369062D01*
X3944365Y-365505D01*
X3951224Y-355092D01*
X3954779Y-337820D01*
X3954779Y-327405D01*
X3951224Y-310134D01*
X3944365Y-299720D01*
X3933952Y-296163D01*
X3927093Y-296163D01*
X3998468Y-296163D02*
G01*
X3988054Y-299720D01*
X3981195Y-310134D01*
X3977640Y-327405D01*
X3977640Y-337820D01*
X3981195Y-355092D01*
X3988054Y-365505D01*
X3998468Y-369062D01*
X4005325Y-369062D01*
X4015740Y-365505D01*
X4022597Y-355092D01*
X4026154Y-337820D01*
X4026154Y-327405D01*
X4022597Y-310134D01*
X4015740Y-299720D01*
X4005325Y-296163D01*
X3998468Y-296163D01*
X6736974Y-438106D02*
G01*
X6685427Y-489653D01*
X6719912Y-421043D02*
G01*
X6754215Y-455348D01*
X6794627Y-520545D02*
G01*
X6797321Y-513181D01*
X6797321Y-503483D01*
X6794807Y-495940D01*
X6785109Y-486239D01*
X6777565Y-483725D01*
X6767865Y-483725D01*
X6760502Y-486420D01*
X6750804Y-491088D01*
X6738411Y-503483D01*
X6733562Y-513361D01*
X6731048Y-520545D01*
X6731048Y-530242D01*
X6733562Y-537786D01*
X6743260Y-547486D01*
X6750804Y-550001D01*
X6760502Y-550001D01*
X6767687Y-547486D01*
X6823184Y-524316D02*
G01*
X6771637Y-575863D01*
X6823184Y-524316D02*
G01*
X6845277Y-546407D01*
X6850125Y-556285D01*
X6850125Y-561314D01*
X6847611Y-568500D01*
X6842762Y-573349D01*
X6835576Y-575863D01*
X6830547Y-575863D01*
X6820669Y-571014D01*
X6798579Y-548921D01*
X6815820Y-566165D02*
G01*
X6805942Y-610168D01*
X6890895Y-592028D02*
G01*
X6839348Y-643575D01*
X6873654Y-574786D02*
G01*
X6907959Y-609089D01*
X6953577Y-654710D02*
G01*
X6929153Y-630283D01*
X6904545Y-649861D01*
X6909574Y-649861D01*
X6919094Y-654710D01*
X6926458Y-662073D01*
X6931487Y-671771D01*
X6931487Y-681829D01*
X6926458Y-691530D01*
X6921609Y-696379D01*
X6911908Y-701408D01*
X6902030Y-701227D01*
X6892152Y-696379D01*
X6884789Y-689015D01*
X6880120Y-679315D01*
X6880120Y-674286D01*
X6882455Y-666922D01*
X6989320Y-690450D02*
G01*
X6979442Y-685601D01*
X6967227Y-688116D01*
X6952500Y-697814D01*
X6945137Y-705180D01*
X6935436Y-719907D01*
X6932922Y-732119D01*
X6937773Y-741997D01*
X6942622Y-746846D01*
X6952500Y-751697D01*
X6964713Y-749183D01*
X6979442Y-739482D01*
X6986805Y-732119D01*
X6996503Y-717392D01*
X6999018Y-705180D01*
X6994169Y-695302D01*
X6989320Y-690450D01*
X7039787Y-740920D02*
G01*
X7029909Y-736071D01*
X7017697Y-738586D01*
X7002970Y-748284D01*
X6995607Y-755647D01*
X6985906Y-770376D01*
X6983392Y-782589D01*
X6988241Y-792467D01*
X6993092Y-797316D01*
X7002970Y-802165D01*
X7015182Y-799650D01*
X7029909Y-789952D01*
X7037273Y-782589D01*
X7046973Y-767862D01*
X7049488Y-755647D01*
X7044639Y-745769D01*
X7039787Y-740920D01*
X7090257Y-791390D02*
G01*
X7080379Y-786541D01*
X7068167Y-789053D01*
X7053437Y-798753D01*
X7046074Y-806117D01*
X7036376Y-820844D01*
X7033861Y-833059D01*
X7038710Y-842937D01*
X7043559Y-847785D01*
X7053437Y-852634D01*
X7065652Y-850120D01*
X7080379Y-840422D01*
X7087743Y-833059D01*
X7097440Y-818329D01*
X7099955Y-806117D01*
X7095106Y-796239D01*
X7090257Y-791390D01*
X3239515Y-3097021D02*
G01*
X3130550Y-3097021D01*
X3239515Y-3060700D02*
G01*
X3239515Y-3133344D01*
X3218688Y-3167634D02*
G01*
X3224022Y-3178047D01*
X3239515Y-3193795D01*
X3130550Y-3193795D01*
D12*
X2442972Y-2362200D02*
G01*
X2345943Y-2399029D01*
X2442972Y-2436113D02*
G01*
X2345943Y-2399029D01*
X2419858Y-2535936D02*
G01*
X2429256Y-2531110D01*
X2438400Y-2521965D01*
X2442972Y-2512821D01*
X2442972Y-2494279D01*
X2438400Y-2485136D01*
X2429256Y-2475737D01*
X2419858Y-2471165D01*
X2406141Y-2466594D01*
X2383027Y-2466594D01*
X2369058Y-2471165D01*
X2359913Y-2475737D01*
X2350770Y-2485136D01*
X2345943Y-2494279D01*
X2345943Y-2512821D01*
X2350770Y-2521965D01*
X2359913Y-2531110D01*
X2369058Y-2535936D01*
X2419858Y-2635504D02*
G01*
X2429256Y-2630931D01*
X2438400Y-2621787D01*
X2442972Y-2612389D01*
X2442972Y-2594102D01*
X2438400Y-2584704D01*
X2429256Y-2575560D01*
X2419858Y-2570987D01*
X2406141Y-2566415D01*
X2383027Y-2566415D01*
X2369058Y-2570987D01*
X2359913Y-2575560D01*
X2350770Y-2584704D01*
X2345943Y-2594102D01*
X2345943Y-2612389D01*
X2350770Y-2621787D01*
X2359913Y-2630931D01*
X2369058Y-2635504D01*
X2187702Y-2431542D02*
G01*
X2196845Y-2426970D01*
X2205990Y-2417571D01*
X2210815Y-2408428D01*
X2210815Y-2389886D01*
X2205990Y-2380742D01*
X2196845Y-2371344D01*
X2187702Y-2366771D01*
X2173731Y-2362200D01*
X2150618Y-2362200D01*
X2136902Y-2366771D01*
X2127504Y-2371344D01*
X2118359Y-2380742D01*
X2113788Y-2389886D01*
X2113788Y-2408428D01*
X2118359Y-2417571D01*
X2127504Y-2426970D01*
X2136902Y-2431542D01*
X2150618Y-2431542D01*
X2150618Y-2408428D02*
G01*
X2150618Y-2431542D01*
X2210815Y-2462021D02*
G01*
X2113788Y-2462021D01*
X2210815Y-2462021D02*
G01*
X2113788Y-2526537D01*
X2210815Y-2526537D02*
G01*
X2113788Y-2526537D01*
X2210815Y-2557018D02*
G01*
X2113788Y-2557018D01*
X2210815Y-2557018D02*
G01*
X2210815Y-2589529D01*
X2205990Y-2603245D01*
X2196845Y-2612389D01*
X2187702Y-2617215D01*
X2173731Y-2621787D01*
X2150618Y-2621787D01*
X2136902Y-2617215D01*
X2127504Y-2612389D01*
X2118359Y-2603245D01*
X2113788Y-2589529D01*
X2113788Y-2557018D01*
X1982215Y-2399029D02*
G01*
X1885187Y-2362200D01*
X1982215Y-2399029D02*
G01*
X1885187Y-2436113D01*
X1917445Y-2376170D02*
G01*
X1917445Y-2422144D01*
X1982215Y-2494279D02*
G01*
X1977390Y-2485136D01*
X1968245Y-2475737D01*
X1959102Y-2471165D01*
X1945131Y-2466594D01*
X1922018Y-2466594D01*
X1908302Y-2471165D01*
X1898904Y-2475737D01*
X1889760Y-2485136D01*
X1885187Y-2494279D01*
X1885187Y-2512821D01*
X1889760Y-2521965D01*
X1898904Y-2531110D01*
X1908302Y-2535936D01*
X1922018Y-2540507D01*
X1945131Y-2540507D01*
X1959102Y-2535936D01*
X1968245Y-2531110D01*
X1977390Y-2521965D01*
X1982215Y-2512821D01*
X1982215Y-2494279D01*
X1963674Y-2570987D02*
G01*
X1968245Y-2580131D01*
X1982215Y-2594102D01*
X1885187Y-2594102D01*
X1220215Y-2387600D02*
G01*
X1123187Y-2387600D01*
X1220215Y-2387600D02*
G01*
X1220215Y-2429255D01*
X1215389Y-2442971D01*
X1210818Y-2447544D01*
X1201673Y-2452370D01*
X1192529Y-2452370D01*
X1183131Y-2447544D01*
X1178560Y-2442971D01*
X1173987Y-2429255D01*
X1173987Y-2387600D02*
G01*
X1173987Y-2429255D01*
X1169415Y-2442971D01*
X1164589Y-2447544D01*
X1155445Y-2452370D01*
X1141729Y-2452370D01*
X1132331Y-2447544D01*
X1127760Y-2442971D01*
X1123187Y-2429255D01*
X1123187Y-2387600D01*
X1220215Y-2510536D02*
G01*
X1215389Y-2501137D01*
X1206245Y-2491994D01*
X1197102Y-2487421D01*
X1183131Y-2482850D01*
X1160018Y-2482850D01*
X1146302Y-2487421D01*
X1136904Y-2491994D01*
X1127760Y-2501137D01*
X1123187Y-2510536D01*
X1123187Y-2528823D01*
X1127760Y-2538221D01*
X1136904Y-2547365D01*
X1146302Y-2551937D01*
X1160018Y-2556510D01*
X1183131Y-2556510D01*
X1197102Y-2551937D01*
X1206245Y-2547365D01*
X1215389Y-2538221D01*
X1220215Y-2528823D01*
X1220215Y-2510536D01*
X1197102Y-2591815D02*
G01*
X1201673Y-2591815D01*
X1210818Y-2596387D01*
X1215389Y-2600960D01*
X1220215Y-2610104D01*
X1220215Y-2628645D01*
X1215389Y-2637789D01*
X1210818Y-2642615D01*
X1201673Y-2647187D01*
X1192529Y-2647187D01*
X1183131Y-2642615D01*
X1169415Y-2633218D01*
X1123187Y-2586989D01*
X1123187Y-2651760D01*
X946657Y-2444242D02*
G01*
X956055Y-2439670D01*
X965200Y-2430271D01*
X969771Y-2421128D01*
X969771Y-2402586D01*
X965200Y-2393442D01*
X956055Y-2384044D01*
X946657Y-2379471D01*
X932942Y-2374900D01*
X909828Y-2374900D01*
X895857Y-2379471D01*
X886713Y-2384044D01*
X877570Y-2393442D01*
X872744Y-2402586D01*
X872744Y-2421128D01*
X877570Y-2430271D01*
X886713Y-2439670D01*
X895857Y-2444242D01*
X909828Y-2444242D01*
X909828Y-2421128D02*
G01*
X909828Y-2444242D01*
X969771Y-2474721D02*
G01*
X872744Y-2474721D01*
X969771Y-2474721D02*
G01*
X872744Y-2539237D01*
X969771Y-2539237D02*
G01*
X872744Y-2539237D01*
X969771Y-2569718D02*
G01*
X872744Y-2569718D01*
X969771Y-2569718D02*
G01*
X969771Y-2602229D01*
X965200Y-2615945D01*
X956055Y-2625089D01*
X946657Y-2629915D01*
X932942Y-2634487D01*
X909828Y-2634487D01*
X895857Y-2629915D01*
X886713Y-2625089D01*
X877570Y-2615945D01*
X872744Y-2602229D01*
X872744Y-2569718D01*
X946657Y-3561842D02*
G01*
X956055Y-3557270D01*
X965200Y-3547871D01*
X969771Y-3538728D01*
X969771Y-3520186D01*
X965200Y-3511042D01*
X956055Y-3501644D01*
X946657Y-3497071D01*
X932942Y-3492500D01*
X909828Y-3492500D01*
X895857Y-3497071D01*
X886713Y-3501644D01*
X877570Y-3511042D01*
X872744Y-3520186D01*
X872744Y-3538728D01*
X877570Y-3547871D01*
X886713Y-3557270D01*
X895857Y-3561842D01*
X909828Y-3561842D01*
X909828Y-3538728D02*
G01*
X909828Y-3561842D01*
X969771Y-3592321D02*
G01*
X872744Y-3592321D01*
X969771Y-3592321D02*
G01*
X872744Y-3656837D01*
X969771Y-3656837D02*
G01*
X872744Y-3656837D01*
X969771Y-3687318D02*
G01*
X872744Y-3687318D01*
X969771Y-3687318D02*
G01*
X969771Y-3719829D01*
X965200Y-3733545D01*
X956055Y-3742689D01*
X946657Y-3747515D01*
X932942Y-3752087D01*
X909828Y-3752087D01*
X895857Y-3747515D01*
X886713Y-3742689D01*
X877570Y-3733545D01*
X872744Y-3719829D01*
X872744Y-3687318D01*
X1223771Y-3352800D02*
G01*
X1126744Y-3352800D01*
X1223771Y-3352800D02*
G01*
X1223771Y-3394455D01*
X1219200Y-3408171D01*
X1214628Y-3412744D01*
X1205229Y-3417570D01*
X1191513Y-3417570D01*
X1182370Y-3412744D01*
X1177544Y-3408171D01*
X1172971Y-3394455D01*
X1172971Y-3352800D01*
X1223771Y-3448050D02*
G01*
X1126744Y-3470910D01*
X1223771Y-3494023D02*
G01*
X1126744Y-3470910D01*
X1223771Y-3494023D02*
G01*
X1126744Y-3517137D01*
X1223771Y-3540252D02*
G01*
X1126744Y-3517137D01*
X1223771Y-3570731D02*
G01*
X1126744Y-3570731D01*
X1223771Y-3570731D02*
G01*
X1126744Y-3607815D01*
X1223771Y-3644645D02*
G01*
X1126744Y-3607815D01*
X1223771Y-3644645D02*
G01*
X1126744Y-3644645D01*
X1223771Y-3675126D02*
G01*
X1126744Y-3675126D01*
X1223771Y-3675126D02*
G01*
X1223771Y-3716781D01*
X1219200Y-3730497D01*
X1214628Y-3735070D01*
X1205229Y-3739895D01*
X1196086Y-3739895D01*
X1186942Y-3735070D01*
X1182370Y-3730497D01*
X1177544Y-3716781D01*
X1177544Y-3675126D02*
G01*
X1177544Y-3716781D01*
X1172971Y-3730497D01*
X1168400Y-3735070D01*
X1159255Y-3739895D01*
X1145286Y-3739895D01*
X1136142Y-3735070D01*
X1131570Y-3730497D01*
X1126744Y-3716781D01*
X1126744Y-3675126D01*
X1477771Y-3467100D02*
G01*
X1380744Y-3467100D01*
X1477771Y-3467100D02*
G01*
X1477771Y-3508755D01*
X1473200Y-3522471D01*
X1468628Y-3527044D01*
X1459229Y-3531870D01*
X1450086Y-3531870D01*
X1440942Y-3527044D01*
X1436370Y-3522471D01*
X1431544Y-3508755D01*
X1431544Y-3467100D02*
G01*
X1431544Y-3508755D01*
X1426971Y-3522471D01*
X1422400Y-3527044D01*
X1413255Y-3531870D01*
X1399286Y-3531870D01*
X1390142Y-3527044D01*
X1385570Y-3522471D01*
X1380744Y-3508755D01*
X1380744Y-3467100D01*
X1477771Y-3562350D02*
G01*
X1380744Y-3562350D01*
X1477771Y-3592829D02*
G01*
X1380744Y-3592829D01*
X1477771Y-3592829D02*
G01*
X1380744Y-3657345D01*
X1477771Y-3657345D02*
G01*
X1380744Y-3657345D01*
X1454657Y-3692397D02*
G01*
X1459229Y-3692397D01*
X1468628Y-3696970D01*
X1473200Y-3701795D01*
X1477771Y-3710939D01*
X1477771Y-3729481D01*
X1473200Y-3738626D01*
X1468628Y-3743197D01*
X1459229Y-3747770D01*
X1450086Y-3747770D01*
X1440942Y-3743197D01*
X1426971Y-3734054D01*
X1380744Y-3687826D01*
X1380744Y-3752595D01*
X1706371Y-3467100D02*
G01*
X1609344Y-3467100D01*
X1706371Y-3467100D02*
G01*
X1706371Y-3508755D01*
X1701800Y-3522471D01*
X1697228Y-3527044D01*
X1687829Y-3531870D01*
X1678686Y-3531870D01*
X1669542Y-3527044D01*
X1664970Y-3522471D01*
X1660144Y-3508755D01*
X1660144Y-3467100D02*
G01*
X1660144Y-3508755D01*
X1655571Y-3522471D01*
X1651000Y-3527044D01*
X1641855Y-3531870D01*
X1627886Y-3531870D01*
X1618742Y-3527044D01*
X1614170Y-3522471D01*
X1609344Y-3508755D01*
X1609344Y-3467100D01*
X1706371Y-3562350D02*
G01*
X1609344Y-3562350D01*
X1706371Y-3592829D02*
G01*
X1609344Y-3592829D01*
X1706371Y-3592829D02*
G01*
X1609344Y-3657345D01*
X1706371Y-3657345D02*
G01*
X1609344Y-3657345D01*
X1687829Y-3687826D02*
G01*
X1692655Y-3696970D01*
X1706371Y-3710939D01*
X1609344Y-3710939D01*
X1968245Y-3442970D02*
G01*
X1977390Y-3433571D01*
X1982215Y-3419855D01*
X1982215Y-3401313D01*
X1977390Y-3387344D01*
X1968245Y-3378200D01*
X1959102Y-3378200D01*
X1949704Y-3382771D01*
X1945131Y-3387344D01*
X1940559Y-3396742D01*
X1931415Y-3424428D01*
X1926589Y-3433571D01*
X1922018Y-3438144D01*
X1912873Y-3442970D01*
X1898904Y-3442970D01*
X1889760Y-3433571D01*
X1885187Y-3419855D01*
X1885187Y-3401313D01*
X1889760Y-3387344D01*
X1898904Y-3378200D01*
X1982215Y-3505707D02*
G01*
X1885187Y-3505707D01*
X1982215Y-3473450D02*
G01*
X1982215Y-3537965D01*
X1982215Y-3568445D02*
G01*
X1885187Y-3568445D01*
X1982215Y-3568445D02*
G01*
X1982215Y-3610102D01*
X1977390Y-3623818D01*
X1972818Y-3628389D01*
X1963674Y-3633215D01*
X1954529Y-3633215D01*
X1945131Y-3628389D01*
X1940559Y-3623818D01*
X1935988Y-3610102D01*
X1935988Y-3568445D02*
G01*
X1935988Y-3610102D01*
X1931415Y-3623818D01*
X1926589Y-3628389D01*
X1917445Y-3633215D01*
X1903729Y-3633215D01*
X1894331Y-3628389D01*
X1889760Y-3623818D01*
X1885187Y-3610102D01*
X1885187Y-3568445D01*
X1982215Y-3663695D02*
G01*
X1935988Y-3700526D01*
X1885187Y-3700526D01*
X1982215Y-3737610D02*
G01*
X1935988Y-3700526D01*
X2239772Y-3503929D02*
G01*
X2142743Y-3467100D01*
X2239772Y-3503929D02*
G01*
X2142743Y-3541013D01*
X2175256Y-3481070D02*
G01*
X2175256Y-3527044D01*
X2239772Y-3571494D02*
G01*
X2142743Y-3571494D01*
X2239772Y-3601973D02*
G01*
X2142743Y-3601973D01*
X2239772Y-3601973D02*
G01*
X2142743Y-3666489D01*
X2239772Y-3666489D02*
G01*
X2142743Y-3666489D01*
X2221229Y-3696970D02*
G01*
X2226056Y-3706368D01*
X2239772Y-3720084D01*
X2142743Y-3720084D01*
X2493772Y-3503929D02*
G01*
X2396743Y-3467100D01*
X2493772Y-3503929D02*
G01*
X2396743Y-3541013D01*
X2429256Y-3481070D02*
G01*
X2429256Y-3527044D01*
X2493772Y-3571494D02*
G01*
X2396743Y-3571494D01*
X2493772Y-3601973D02*
G01*
X2396743Y-3601973D01*
X2493772Y-3601973D02*
G01*
X2396743Y-3666489D01*
X2493772Y-3666489D02*
G01*
X2396743Y-3666489D01*
X2470658Y-3701795D02*
G01*
X2475229Y-3701795D01*
X2484627Y-3706368D01*
X2489200Y-3710939D01*
X2493772Y-3720084D01*
X2493772Y-3738626D01*
X2489200Y-3747770D01*
X2484627Y-3752595D01*
X2475229Y-3757168D01*
X2466086Y-3757168D01*
X2456941Y-3752595D01*
X2442972Y-3743197D01*
X2396743Y-3696970D01*
X2396743Y-3761739D01*
X2747772Y-3352800D02*
G01*
X2650743Y-3352800D01*
X2747772Y-3352800D02*
G01*
X2747772Y-3394455D01*
X2743200Y-3408171D01*
X2738627Y-3412744D01*
X2729229Y-3417570D01*
X2715513Y-3417570D01*
X2706370Y-3412744D01*
X2701543Y-3408171D01*
X2696972Y-3394455D01*
X2696972Y-3352800D01*
X2747772Y-3448050D02*
G01*
X2650743Y-3470910D01*
X2747772Y-3494023D02*
G01*
X2650743Y-3470910D01*
X2747772Y-3494023D02*
G01*
X2650743Y-3517137D01*
X2747772Y-3540252D02*
G01*
X2650743Y-3517137D01*
X2747772Y-3570731D02*
G01*
X2650743Y-3570731D01*
X2747772Y-3570731D02*
G01*
X2650743Y-3607815D01*
X2747772Y-3644645D02*
G01*
X2650743Y-3607815D01*
X2747772Y-3644645D02*
G01*
X2650743Y-3644645D01*
X2747772Y-3712210D02*
G01*
X2650743Y-3675126D01*
X2747772Y-3712210D02*
G01*
X2650743Y-3749039D01*
X2683256Y-3689095D02*
G01*
X2683256Y-3735070D01*
X2693415Y-2362200D02*
G01*
X2596388Y-2399029D01*
X2693415Y-2436113D02*
G01*
X2596388Y-2399029D01*
X2693415Y-2466594D02*
G01*
X2596388Y-2466594D01*
X2693415Y-2466594D02*
G01*
X2596388Y-2503423D01*
X2693415Y-2540507D02*
G01*
X2596388Y-2503423D01*
X2693415Y-2540507D02*
G01*
X2596388Y-2540507D01*
X1753615Y-2399029D02*
G01*
X1656587Y-2362200D01*
X1753615Y-2399029D02*
G01*
X1656587Y-2436113D01*
X1688845Y-2376170D02*
G01*
X1688845Y-2422144D01*
X1753615Y-2494279D02*
G01*
X1748789Y-2485136D01*
X1739645Y-2475737D01*
X1730502Y-2471165D01*
X1716531Y-2466594D01*
X1693418Y-2466594D01*
X1679702Y-2471165D01*
X1670304Y-2475737D01*
X1661160Y-2485136D01*
X1656587Y-2494279D01*
X1656587Y-2512821D01*
X1661160Y-2521965D01*
X1670304Y-2531110D01*
X1679702Y-2535936D01*
X1693418Y-2540507D01*
X1716531Y-2540507D01*
X1730502Y-2535936D01*
X1739645Y-2531110D01*
X1748789Y-2521965D01*
X1753615Y-2512821D01*
X1753615Y-2494279D01*
X1730502Y-2575560D02*
G01*
X1735073Y-2575560D01*
X1744218Y-2580131D01*
X1748789Y-2584704D01*
X1753615Y-2594102D01*
X1753615Y-2612389D01*
X1748789Y-2621787D01*
X1744218Y-2626360D01*
X1735073Y-2630931D01*
X1725929Y-2630931D01*
X1716531Y-2626360D01*
X1702815Y-2617215D01*
X1656587Y-2570987D01*
X1656587Y-2635504D01*
X1477771Y-2387600D02*
G01*
X1380744Y-2387600D01*
X1477771Y-2387600D02*
G01*
X1477771Y-2429255D01*
X1473200Y-2442971D01*
X1468628Y-2447544D01*
X1459229Y-2452370D01*
X1450086Y-2452370D01*
X1440942Y-2447544D01*
X1436370Y-2442971D01*
X1431544Y-2429255D01*
X1431544Y-2387600D02*
G01*
X1431544Y-2429255D01*
X1426971Y-2442971D01*
X1422400Y-2447544D01*
X1413255Y-2452370D01*
X1399286Y-2452370D01*
X1390142Y-2447544D01*
X1385570Y-2442971D01*
X1380744Y-2429255D01*
X1380744Y-2387600D01*
X1477771Y-2510536D02*
G01*
X1473200Y-2501137D01*
X1464055Y-2491994D01*
X1454657Y-2487421D01*
X1440942Y-2482850D01*
X1417828Y-2482850D01*
X1403857Y-2487421D01*
X1394713Y-2491994D01*
X1385570Y-2501137D01*
X1380744Y-2510536D01*
X1380744Y-2528823D01*
X1385570Y-2538221D01*
X1394713Y-2547365D01*
X1403857Y-2551937D01*
X1417828Y-2556510D01*
X1440942Y-2556510D01*
X1454657Y-2551937D01*
X1464055Y-2547365D01*
X1473200Y-2538221D01*
X1477771Y-2528823D01*
X1477771Y-2510536D01*
X1459229Y-2586989D02*
G01*
X1464055Y-2596387D01*
X1477771Y-2610104D01*
X1380744Y-2610104D01*
D21*
X5436615Y-7112000D02*
G01*
X5358638Y-7112000D01*
X5343143Y-7117079D01*
X5332729Y-7127494D01*
X5327650Y-7143242D01*
X5327650Y-7153655D01*
X5332729Y-7169150D01*
X5343143Y-7179563D01*
X5358638Y-7184644D01*
X5436615Y-7184644D01*
X5436615Y-7271004D02*
G01*
X5363972Y-7218934D01*
X5363972Y-7296912D01*
X5436615Y-7271004D02*
G01*
X5327650Y-7271004D01*
D20*
X2920499Y-6695401D02*
G01*
X2805945Y-6695401D01*
X2920499Y-6695401D02*
G01*
X2920499Y-6766267D01*
X2865889Y-6695401D02*
G01*
X2865889Y-6738835D01*
X2904243Y-6878535D02*
G01*
X2915165Y-6867613D01*
X2920499Y-6851357D01*
X2920499Y-6829513D01*
X2915165Y-6813003D01*
X2904243Y-6802081D01*
X2893321Y-6802081D01*
X2882399Y-6807669D01*
X2876811Y-6813003D01*
X2871477Y-6823925D01*
X2860555Y-6856691D01*
X2854967Y-6867613D01*
X2849633Y-6873201D01*
X2838711Y-6878535D01*
X2822455Y-6878535D01*
X2811533Y-6867613D01*
X2805945Y-6851357D01*
X2805945Y-6829513D01*
X2811533Y-6813003D01*
X2822455Y-6802081D01*
X2920499Y-6914603D02*
G01*
X2865889Y-6958291D01*
X2805945Y-6958291D01*
X2920499Y-7001725D02*
G01*
X2865889Y-6958291D01*
X2920499Y-7037793D02*
G01*
X2805945Y-7037793D01*
X2920499Y-7037793D02*
G01*
X2805945Y-7114247D01*
X2920499Y-7114247D02*
G01*
X2805945Y-7114247D01*
X2893321Y-7232103D02*
G01*
X2904243Y-7226515D01*
X2915165Y-7215593D01*
X2920499Y-7204671D01*
X2920499Y-7182827D01*
X2915165Y-7171905D01*
X2904243Y-7160983D01*
X2893321Y-7155649D01*
X2876811Y-7150061D01*
X2849633Y-7150061D01*
X2833377Y-7155649D01*
X2822455Y-7160983D01*
X2811533Y-7171905D01*
X2805945Y-7182827D01*
X2805945Y-7204671D01*
X2811533Y-7215593D01*
X2822455Y-7226515D01*
X2833377Y-7232103D01*
X3173351Y-6694296D02*
G01*
X3058797Y-6694296D01*
X3173351Y-6694296D02*
G01*
X3058797Y-6770496D01*
X3173351Y-6770496D02*
G01*
X3058797Y-6770496D01*
X3146173Y-6888353D02*
G01*
X3157095Y-6883019D01*
X3168017Y-6872096D01*
X3173351Y-6861175D01*
X3173351Y-6839330D01*
X3168017Y-6828409D01*
X3157095Y-6817487D01*
X3146173Y-6811898D01*
X3129663Y-6806564D01*
X3102485Y-6806564D01*
X3086229Y-6811898D01*
X3075307Y-6817487D01*
X3064385Y-6828409D01*
X3058797Y-6839330D01*
X3058797Y-6861175D01*
X3064385Y-6872096D01*
X3075307Y-6883019D01*
X3086229Y-6888353D01*
X3157095Y-7000620D02*
G01*
X3168017Y-6989698D01*
X3173351Y-6973443D01*
X3173351Y-6951598D01*
X3168017Y-6935343D01*
X3157095Y-6924420D01*
X3146173Y-6924420D01*
X3135251Y-6929754D01*
X3129663Y-6935343D01*
X3124329Y-6946264D01*
X3113407Y-6978777D01*
X3107819Y-6989698D01*
X3102485Y-6995287D01*
X3091563Y-7000620D01*
X3075307Y-7000620D01*
X3064385Y-6989698D01*
X3058797Y-6973443D01*
X3058797Y-6951598D01*
X3064385Y-6935343D01*
X3075307Y-6924420D01*
X3426200Y-6694296D02*
G01*
X3311646Y-6694296D01*
X3426200Y-6730111D02*
G01*
X3311646Y-6730111D01*
X3426200Y-6730111D02*
G01*
X3311646Y-6806564D01*
X3426200Y-6806564D02*
G01*
X3311646Y-6806564D01*
X3426200Y-6880733D02*
G01*
X3311646Y-6880733D01*
X3426200Y-6842633D02*
G01*
X3426200Y-6918833D01*
X3679060Y-6737730D02*
G01*
X3564506Y-6694296D01*
X3679060Y-6737730D02*
G01*
X3564506Y-6781419D01*
X3602860Y-6710553D02*
G01*
X3602860Y-6765162D01*
X3679060Y-6817487D02*
G01*
X3564506Y-6817487D01*
X3679060Y-6817487D02*
G01*
X3679060Y-6855587D01*
X3673726Y-6872096D01*
X3662804Y-6883019D01*
X3651882Y-6888353D01*
X3635372Y-6893687D01*
X3608194Y-6893687D01*
X3591938Y-6888353D01*
X3581016Y-6883019D01*
X3570094Y-6872096D01*
X3564506Y-6855587D01*
X3564506Y-6817487D01*
X3679060Y-6962520D02*
G01*
X3673726Y-6946264D01*
X3657216Y-6935343D01*
X3630038Y-6929754D01*
X3613528Y-6929754D01*
X3586350Y-6935343D01*
X3570094Y-6946264D01*
X3564506Y-6962520D01*
X3564506Y-6973443D01*
X3570094Y-6989698D01*
X3586350Y-7000620D01*
X3613528Y-7006209D01*
X3630038Y-7006209D01*
X3657216Y-7000620D01*
X3673726Y-6989698D01*
X3679060Y-6973443D01*
X3679060Y-6962520D01*
X3931914Y-6694296D02*
G01*
X3817360Y-6694296D01*
X3931914Y-6694296D02*
G01*
X3931914Y-6765162D01*
X3877304Y-6694296D02*
G01*
X3877304Y-6737730D01*
X3817360Y-6694296D02*
G01*
X3817360Y-6765162D01*
X3931914Y-6800977D02*
G01*
X3817360Y-6800977D01*
X3931914Y-6800977D02*
G01*
X3931914Y-6839330D01*
X3926580Y-6855587D01*
X3915658Y-6866509D01*
X3904736Y-6872096D01*
X3888226Y-6877430D01*
X3861048Y-6877430D01*
X3844792Y-6872096D01*
X3833870Y-6866509D01*
X3822948Y-6855587D01*
X3817360Y-6839330D01*
X3817360Y-6800977D01*
X3931914Y-6913498D02*
G01*
X3817360Y-6913498D01*
X3817360Y-6913498D02*
G01*
X3817360Y-6978777D01*
X4184769Y-6694296D02*
G01*
X4070215Y-6694296D01*
X4184769Y-6694296D02*
G01*
X4184769Y-6765162D01*
X4130159Y-6694296D02*
G01*
X4130159Y-6737730D01*
X4070215Y-6694296D02*
G01*
X4070215Y-6765162D01*
X4184769Y-6800977D02*
G01*
X4070215Y-6800977D01*
X4184769Y-6800977D02*
G01*
X4184769Y-6839330D01*
X4179435Y-6855587D01*
X4168513Y-6866509D01*
X4157591Y-6872096D01*
X4141081Y-6877430D01*
X4113903Y-6877430D01*
X4097647Y-6872096D01*
X4086725Y-6866509D01*
X4075803Y-6855587D01*
X4070215Y-6839330D01*
X4070215Y-6800977D01*
X4184769Y-6957187D02*
G01*
X4070215Y-6913498D01*
X4184769Y-6957187D02*
G01*
X4070215Y-7000620D01*
X4108569Y-6929754D02*
G01*
X4108569Y-6984364D01*
X4421370Y-6770496D02*
G01*
X4432292Y-6759575D01*
X4437626Y-6743319D01*
X4437626Y-6721475D01*
X4432292Y-6704964D01*
X4421370Y-6694296D01*
X4410448Y-6694296D01*
X4399526Y-6699630D01*
X4393938Y-6704964D01*
X4388604Y-6715887D01*
X4377682Y-6748653D01*
X4372094Y-6759575D01*
X4366760Y-6765162D01*
X4355838Y-6770496D01*
X4339582Y-6770496D01*
X4328660Y-6759575D01*
X4323072Y-6743319D01*
X4323072Y-6721475D01*
X4328660Y-6704964D01*
X4339582Y-6694296D01*
X4437626Y-6806564D02*
G01*
X4323072Y-6806564D01*
X4437626Y-6806564D02*
G01*
X4437626Y-6844664D01*
X4432292Y-6861175D01*
X4421370Y-6872096D01*
X4410448Y-6877430D01*
X4393938Y-6883019D01*
X4366760Y-6883019D01*
X4350504Y-6877430D01*
X4339582Y-6872096D01*
X4328660Y-6861175D01*
X4323072Y-6844664D01*
X4323072Y-6806564D01*
X4437626Y-6962520D02*
G01*
X4323072Y-6918833D01*
X4437626Y-6962520D02*
G01*
X4323072Y-7006209D01*
X4361426Y-6935343D02*
G01*
X4361426Y-6989698D01*
X4674229Y-6770496D02*
G01*
X4685151Y-6759575D01*
X4690485Y-6743319D01*
X4690485Y-6721475D01*
X4685151Y-6704964D01*
X4674229Y-6694296D01*
X4663307Y-6694296D01*
X4652385Y-6699630D01*
X4646797Y-6704964D01*
X4641463Y-6715887D01*
X4630541Y-6748653D01*
X4624953Y-6759575D01*
X4619619Y-6765162D01*
X4608697Y-6770496D01*
X4592441Y-6770496D01*
X4581519Y-6759575D01*
X4575931Y-6743319D01*
X4575931Y-6721475D01*
X4581519Y-6704964D01*
X4592441Y-6694296D01*
X4663307Y-6888353D02*
G01*
X4674229Y-6883019D01*
X4685151Y-6872096D01*
X4690485Y-6861175D01*
X4690485Y-6839330D01*
X4685151Y-6828409D01*
X4674229Y-6817487D01*
X4663307Y-6811898D01*
X4646797Y-6806564D01*
X4619619Y-6806564D01*
X4603363Y-6811898D01*
X4592441Y-6817487D01*
X4581519Y-6828409D01*
X4575931Y-6839330D01*
X4575931Y-6861175D01*
X4581519Y-6872096D01*
X4592441Y-6883019D01*
X4603363Y-6888353D01*
X4690485Y-6924420D02*
G01*
X4575931Y-6924420D01*
X4575931Y-6924420D02*
G01*
X4575931Y-6989698D01*
X4916162Y-6776085D02*
G01*
X4927084Y-6770496D01*
X4938006Y-6759575D01*
X4943340Y-6748653D01*
X4943340Y-6726809D01*
X4938006Y-6715887D01*
X4927084Y-6704964D01*
X4916162Y-6699630D01*
X4899652Y-6694296D01*
X4872474Y-6694296D01*
X4856218Y-6699630D01*
X4845296Y-6704964D01*
X4834374Y-6715887D01*
X4828786Y-6726809D01*
X4828786Y-6748653D01*
X4834374Y-6759575D01*
X4845296Y-6770496D01*
X4856218Y-6776085D01*
X4872474Y-6776085D01*
X4872474Y-6748653D02*
G01*
X4872474Y-6776085D01*
X4943340Y-6811898D02*
G01*
X4828786Y-6811898D01*
X4943340Y-6811898D02*
G01*
X4828786Y-6888353D01*
X4943340Y-6888353D02*
G01*
X4828786Y-6888353D01*
X5196199Y-6694299D02*
G01*
X5081645Y-6737987D01*
X5196199Y-6781675D02*
G01*
X5081645Y-6737987D01*
X5168767Y-6899277D02*
G01*
X5179689Y-6893943D01*
X5190611Y-6883021D01*
X5196199Y-6872099D01*
X5196199Y-6850255D01*
X5190611Y-6839333D01*
X5179689Y-6828411D01*
X5168767Y-6823077D01*
X5152511Y-6817489D01*
X5125079Y-6817489D01*
X5108823Y-6823077D01*
X5097901Y-6828411D01*
X5086979Y-6839333D01*
X5081645Y-6850255D01*
X5081645Y-6872099D01*
X5086979Y-6883021D01*
X5097901Y-6893943D01*
X5108823Y-6899277D01*
X5168767Y-7017133D02*
G01*
X5179689Y-7011799D01*
X5190611Y-7000877D01*
X5196199Y-6989955D01*
X5196199Y-6968111D01*
X5190611Y-6957189D01*
X5179689Y-6946267D01*
X5168767Y-6940933D01*
X5152511Y-6935345D01*
X5125079Y-6935345D01*
X5108823Y-6940933D01*
X5097901Y-6946267D01*
X5086979Y-6957189D01*
X5081645Y-6968111D01*
X5081645Y-6989955D01*
X5086979Y-7000877D01*
X5097901Y-7011799D01*
X5108823Y-7017133D01*
D21*
X5965443Y-7253478D02*
G01*
X5955029Y-7243063D01*
X5939536Y-7237984D01*
X5918708Y-7237984D01*
X5903213Y-7243063D01*
X5892800Y-7253478D01*
X5892800Y-7263892D01*
X5897879Y-7274305D01*
X5903213Y-7279639D01*
X5913627Y-7284720D01*
X5944870Y-7295134D01*
X5955029Y-7300213D01*
X5960363Y-7305547D01*
X5965443Y-7315962D01*
X5965443Y-7331455D01*
X5955029Y-7341870D01*
X5939536Y-7346950D01*
X5918708Y-7346950D01*
X5903213Y-7341870D01*
X5892800Y-7331455D01*
X5999734Y-7237984D02*
G01*
X6025895Y-7346950D01*
X6051804Y-7237984D02*
G01*
X6025895Y-7346950D01*
X6051804Y-7237984D02*
G01*
X6077711Y-7346950D01*
X6103620Y-7237984D02*
G01*
X6077711Y-7346950D01*
X6137909Y-7258812D02*
G01*
X6148324Y-7253478D01*
X6164072Y-7237984D01*
X6164072Y-7346950D01*
D10*
X3428009Y-3973398D02*
G01*
X3428009Y-2173401D01*
X7748015Y-2173401D01*
X7748015Y-3973398D01*
X3428009Y-3973398D01*
X396626Y-1307571D02*
G01*
X540311Y-1163886D01*
X540311Y-1163886D02*
G01*
X971362Y-1594939D01*
X827679Y-1738622D02*
G01*
X396626Y-1307571D01*
X971362Y-1594939D02*
G01*
X827679Y-1738622D01*
X1412626Y-367771D02*
G01*
X1556311Y-224086D01*
X1556311Y-224086D02*
G01*
X1987362Y-655139D01*
X1843679Y-798822D02*
G01*
X1412626Y-367771D01*
X1987362Y-655139D02*
G01*
X1843679Y-798822D01*
X3111500Y-381000D02*
G01*
X3314700Y-381000D01*
X3314700Y-381000D02*
G01*
X3314700Y-990600D01*
X3111500Y-990600D02*
G01*
X3111500Y-381000D01*
X3314700Y-990600D02*
G01*
X3111500Y-990600D01*
X4584700Y-368300D02*
G01*
X4787900Y-368300D01*
X4787900Y-368300D02*
G01*
X4787900Y-977900D01*
X4584700Y-977900D02*
G01*
X4584700Y-368300D01*
X4787900Y-977900D02*
G01*
X4584700Y-977900D01*
X6414028Y-231526D02*
G01*
X6557713Y-375211D01*
X6557713Y-375211D02*
G01*
X6126660Y-806262D01*
X5982977Y-662579D02*
G01*
X6414028Y-231526D01*
X6126660Y-806262D02*
G01*
X5982977Y-662579D01*
X7480828Y-1209426D02*
G01*
X7624513Y-1353111D01*
X7624513Y-1353111D02*
G01*
X7193460Y-1784162D01*
X7049777Y-1640479D02*
G01*
X7480828Y-1209426D01*
X7193460Y-1784162D02*
G01*
X7049777Y-1640479D01*
X577242Y-1096055D02*
G01*
X1207658Y-465642D01*
X1207658Y-465642D02*
G01*
X1414203Y-488990D01*
X1414203Y-488990D02*
G01*
X1593809Y-668596D01*
X1593809Y-668596D02*
G01*
X1613565Y-878733D01*
X1613565Y-878733D02*
G01*
X986744Y-1505557D01*
X986744Y-1505557D02*
G01*
X577242Y-1096055D01*
X693986Y-1029601D02*
G01*
X1232801Y-490786D01*
X1232801Y-490786D02*
G01*
X1592013Y-849998D01*
X1592013Y-849998D02*
G01*
X1053198Y-1388813D01*
X1053198Y-1388813D02*
G01*
X693986Y-1029601D01*
X3464559Y-383539D02*
G01*
X4356100Y-383539D01*
X4356100Y-383539D02*
G01*
X4485640Y-546100D01*
X4485640Y-546100D02*
G01*
X4485640Y-800100D01*
X4485640Y-800100D02*
G01*
X4351020Y-962660D01*
X4351020Y-962660D02*
G01*
X3464559Y-962660D01*
X3464559Y-962660D02*
G01*
X3464559Y-383539D01*
X3594100Y-419100D02*
G01*
X4356100Y-419100D01*
X4356100Y-419100D02*
G01*
X4356100Y-927100D01*
X4356100Y-927100D02*
G01*
X3594100Y-927100D01*
X3594100Y-927100D02*
G01*
X3594100Y-419100D01*
X6650944Y-475642D02*
G01*
X7281357Y-1106058D01*
X7281357Y-1106058D02*
G01*
X7258009Y-1312603D01*
X7258009Y-1312603D02*
G01*
X7078403Y-1492209D01*
X7078403Y-1492209D02*
G01*
X6868266Y-1511965D01*
X6868266Y-1511965D02*
G01*
X6241442Y-885144D01*
X6241442Y-885144D02*
G01*
X6650944Y-475642D01*
X6717398Y-592386D02*
G01*
X7256213Y-1131201D01*
X7256213Y-1131201D02*
G01*
X6897001Y-1490413D01*
X6897001Y-1490413D02*
G01*
X6358186Y-951598D01*
X6358186Y-951598D02*
G01*
X6717398Y-592386D01*
D11*
X787400Y-3657600D02*
G01*
X787400Y-2133600D01*
X2870200Y-2133600D01*
X2870200Y-3987800D01*
X787400Y-3987800D01*
X787400Y-3657600D01*
D20*
X5270500Y-6375400D02*
G01*
X5270500Y-7875399D01*
X2770499Y-7875399D01*
X2770499Y-6375400D01*
X5270500Y-6375400D01*
D10*
X5467807Y-7381494D02*
G01*
X6317818Y-7381494D01*
X6317818Y-7731505D01*
X5467807Y-7731505D01*
X5467807Y-7381494D01*
M02*
